<?xml version="1.0" standalone="no"?>
<!DOCTYPE svg PUBLIC "-//W3C//DTD SVG 20010904//EN"
 "http://www.w3.org/TR/2001/REC-SVG-20010904/DTD/svg10.dtd">
<svg version="1.0" xmlns="http://www.w3.org/2000/svg"
 width="500.000000pt" height="500.000000pt" viewBox="0 0 500.000000 500.000000"
 preserveAspectRatio="xMidYMid meet">

<g transform="translate(0.000000,500.000000) scale(0.100000,-0.100000)"
fill="#000000" stroke="none">
<path d="M1535 4165 c-16 -8 -47 -17 -67 -20 -69 -11 -128 -113 -128 -221 0
-165 132 -508 276 -717 30 -43 54 -82 54 -86 0 -5 12 -21 28 -36 19 -19 23
-29 14 -32 -7 -3 -21 -14 -31 -24 -17 -19 -17 -24 11 -137 15 -64 62 -261 104
-437 83 -346 72 -320 162 -393 18 -15 39 -32 46 -38 9 -9 17 -8 31 2 29 21 38
17 33 -16 -5 -33 -8 -29 157 -155 50 -38 121 -93 159 -122 39 -30 77 -51 85
-49 9 3 82 8 163 12 l148 7 -6 -62 c-9 -81 13 -139 69 -185 43 -35 110 -62
126 -52 5 4 12 2 15 -3 7 -11 97 -5 105 7 3 4 13 7 21 7 29 -1 105 44 145 84
21 23 33 41 26 41 -8 0 -11 6 -7 16 4 10 1 14 -6 12 -15 -5 -47 -60 -41 -71 6
-10 -15 -9 -21 2 -3 5 1 14 9 21 12 10 13 16 4 27 -9 11 -9 12 4 7 17 -6 42
29 33 49 -2 7 -8 2 -12 -11 -9 -31 -29 -22 -30 14 -3 65 -4 70 -13 55 -5 -8
-8 4 -7 35 1 29 6 48 14 50 7 1 8 0 2 -3 -16 -8 -12 -23 5 -17 22 9 18 34 -5
34 -26 0 -26 20 0 27 16 4 18 9 9 25 -8 16 -8 23 2 29 9 6 -6 9 -39 9 -33 0
-51 -4 -47 -10 3 -5 19 -10 35 -10 15 0 30 -6 33 -14 4 -11 -6 -11 -56 2 -34
9 -54 18 -44 20 32 7 17 21 -17 15 -19 -3 -42 0 -52 5 -14 8 10 10 94 8 62 -2
114 -5 117 -7 2 -3 0 -22 -4 -44 -9 -44 -8 -85 2 -102 4 -6 4 -18 1 -27 -3 -9
-1 -23 6 -31 7 -9 10 -18 7 -22 -4 -3 -13 9 -21 28 -9 19 -15 27 -15 19 -1
-30 12 -60 25 -60 7 0 21 -17 30 -37 23 -50 87 -131 127 -160 34 -25 103 -50
113 -40 11 11 -8 28 -25 22 -10 -3 -26 3 -38 14 -11 11 -23 17 -26 14 -3 -3
-17 4 -31 14 -23 19 -24 22 -10 39 14 18 15 18 9 -3 -5 -19 -2 -23 17 -23 18
0 20 2 8 10 -13 8 -12 10 3 10 10 0 17 -8 17 -19 0 -24 25 -45 45 -38 8 4 21
0 29 -8 7 -8 17 -11 21 -7 5 4 5 1 1 -5 -5 -9 0 -13 16 -12 13 0 17 3 11 6 -7
2 -13 9 -13 14 0 6 4 7 10 4 5 -3 19 -1 30 5 15 8 20 8 20 -1 0 -8 4 -8 15 1
8 6 19 9 24 5 6 -3 19 -1 28 5 15 9 14 10 -6 4 -15 -4 -21 -2 -17 4 3 6 -2 13
-11 15 -10 3 -1 4 21 2 21 -2 47 0 57 6 11 5 28 14 39 19 12 6 25 8 30 5 6 -4
10 1 10 9 0 9 5 16 10 16 20 0 10 -32 -12 -38 -21 -5 -21 -6 -2 -13 27 -11 54
-10 29 1 -18 8 -18 9 -2 9 12 1 16 5 11 14 -6 9 -5 9 7 1 8 -7 23 -14 34 -17
17 -4 16 -5 -4 -6 -17 -1 -22 -4 -15 -11 9 -9 46 -1 99 22 16 7 14 8 -11 5
-17 -2 -31 2 -31 7 0 13 59 15 68 2 7 -9 79 51 79 66 0 5 7 16 15 24 18 18 20
34 4 34 -8 0 -8 5 1 15 16 19 21 164 7 190 -11 20 -13 26 -16 45 0 6 -8 10
-16 10 -8 0 -15 6 -15 14 0 9 -8 13 -22 10 -21 -4 -22 -4 -3 5 15 7 16 10 5
11 -22 3 -22 3 -52 -4 -26 -6 -27 -5 -22 22 4 18 1 32 -8 40 -11 9 -14 5 -13
-23 0 -33 34 -85 55 -85 13 0 13 17 0 23 -6 3 -5 4 2 3 7 -2 12 -11 12 -20 -1
-9 2 -16 8 -16 5 0 6 -5 3 -11 -5 -7 -13 -5 -24 5 -20 18 -41 21 -41 6 0 -5 9
-10 20 -10 11 0 20 -4 20 -10 0 -5 -15 -10 -32 -10 -25 0 -29 -3 -18 -10 11
-7 7 -10 -17 -10 -32 0 -33 2 -33 40 0 38 13 54 23 28 2 -8 8 -9 13 -4 5 5 4
11 -3 13 -7 3 -13 15 -13 28 0 13 -4 27 -10 30 -5 3 -10 -3 -10 -14 0 -12 -5
-21 -11 -21 -7 0 -10 16 -8 43 4 41 3 43 -22 39 -27 -4 -74 32 -63 50 3 4 -2
8 -10 8 -9 0 -16 3 -16 8 0 4 20 7 45 7 39 0 42 -1 23 -11 -26 -14 -7 -28 27
-20 19 5 23 3 19 -9 -4 -8 -1 -15 5 -15 6 0 11 -7 11 -16 0 -8 5 -12 10 -9 6
3 10 1 10 -4 0 -15 17 -14 17 2 0 6 4 20 8 30 5 12 2 17 -9 17 -9 0 -16 6 -16
14 0 22 -19 30 -35 16 -9 -7 -15 -8 -15 -2 0 5 6 12 14 15 18 7 83 -10 92 -24
4 -8 0 -7 -14 0 -25 13 -32 14 -32 2 0 -5 9 -13 21 -16 14 -5 17 -10 11 -18
-7 -8 -5 -17 6 -27 14 -13 15 -13 10 0 -3 8 -2 24 2 35 10 27 -24 65 -51 58
-16 -4 -18 -2 -12 13 6 18 6 18 -10 2 -14 -13 -29 -16 -70 -12 -44 5 -56 2
-71 -15 -11 -12 -24 -21 -29 -21 -6 0 0 12 14 27 l24 28 -26 -23 c-18 -15 -25
-30 -22 -43 5 -17 -5 -24 -23 -16 -8 3 -26 -40 -30 -73 -3 -29 19 -64 38 -58
14 5 44 -20 34 -29 -3 -3 -12 -1 -19 5 -10 9 -16 7 -27 -7 -13 -19 -40 -18
-40 1 0 5 4 7 9 4 4 -3 8 3 7 14 -1 22 -20 28 -22 7 0 -6 -2 -20 -2 -29 -3
-26 -39 -22 -53 4 -8 15 -12 62 -10 128 1 58 -3 142 -8 187 -8 65 -7 93 4 129
14 47 24 299 12 311 -4 3 -7 0 -7 -8 -1 -8 -7 -27 -15 -44 l-14 -30 2 30 c2
28 0 30 -33 28 -30 -2 -27 1 24 19 38 13 75 36 102 62 l41 41 5 130 c3 80 12
152 23 189 16 55 16 60 -1 98 -21 47 -73 90 -142 117 l-51 20 -21 -26 c-11
-14 -22 -24 -24 -22 -2 2 23 36 56 74 33 39 78 95 101 125 22 30 45 58 51 62
6 4 5 12 -3 22 -15 18 -8 206 9 250 5 14 54 69 110 122 55 53 100 101 100 106
0 15 -199 -173 -221 -208 -15 -25 -19 -50 -19 -120 0 -77 -11 -129 -23 -114
-2 3 0 53 3 112 6 104 8 108 42 150 20 24 67 72 104 108 126 120 154 150 154
165 0 7 -31 -16 -68 -53 -37 -37 -96 -94 -130 -126 -105 -101 -116 -123 -122
-240 -5 -101 -13 -105 -25 -11 -11 92 -22 113 -63 125 -20 5 -46 10 -57 10
-17 0 -17 -2 -5 -10 8 -5 24 -10 36 -10 27 0 50 -47 63 -129 12 -74 31 -43
-177 -302 -68 -85 -127 -160 -132 -168 -4 -8 -14 -11 -25 -7 -20 7 -29 -6 157
234 65 84 121 165 124 180 4 20 -2 37 -23 64 -49 64 -107 76 -150 31 -28 -30
-264 -313 -285 -342 -18 -24 -34 -32 -52 -25 -23 9 -20 21 19 69 l36 43 -33 5
c-18 3 -78 9 -133 12 -82 6 -119 3 -205 -15 -108 -23 -148 -23 -303 -1 -81 11
-114 3 -172 -41 -54 -41 -75 -83 -86 -172 -6 -48 -17 -83 -35 -110 -35 -53
-39 -90 -20 -231 19 -144 30 -187 54 -209 18 -16 18 -18 -1 -74 -17 -49 -18
-73 -13 -178 6 -115 -3 -204 -24 -227 -7 -8 -45 140 -162 633 -61 261 -69 280
-115 280 -19 0 -23 5 -23 34 0 18 4 55 9 82 5 27 11 144 14 259 2 116 1 172
-2 125 l-6 -85 -10 65 -9 65 -7 -50 c-4 -27 -7 -63 -7 -80 1 -30 1 -29 9 5 5
21 6 -5 2 -65 -3 -55 -6 -144 -8 -198 -1 -54 -5 -100 -7 -102 -3 -3 -10 68
-17 157 -7 90 -16 181 -21 203 -10 42 -9 31 7 -160 9 -103 -6 -73 -27 56 -71
430 -101 566 -131 584 -5 4 -9 15 -9 26 0 12 -7 19 -20 19 -21 0 -27 24 -10
50 7 12 12 11 30 -5 20 -18 20 -20 3 -26 -16 -7 -16 -8 -1 -8 10 -1 27 -18 38
-38 14 -26 19 -30 14 -13 -3 14 -17 44 -30 68 -29 54 -8 50 24 -4 13 -21 21
-30 17 -19 -4 11 -8 26 -8 32 0 16 -57 70 -57 55 0 -7 -11 -12 -23 -12 -24 0
-49 -22 -60 -50 -4 -12 -6 -12 -6 2 -1 27 20 66 38 70 9 2 36 4 61 4 42 -1 47
-4 77 -50 34 -50 42 -73 21 -60 -7 4 -3 -6 9 -22 24 -35 39 -94 49 -189 6 -59
9 -66 16 -43 7 19 2 56 -18 135 -42 174 -92 253 -159 253 -15 0 -24 4 -20 10
23 38 124 -20 161 -93 20 -39 63 -214 83 -337 5 -30 9 -42 10 -27 2 51 -59
321 -85 374 -17 36 -39 61 -71 82 -51 34 -64 36 -108 16z m-88 -69 c-20 -18
-41 -45 -47 -60 -14 -38 -12 -139 4 -216 17 -76 86 -294 92 -288 2 3 -8 38
-22 79 -78 227 -90 394 -34 461 26 31 26 7 0 -51 -38 -82 -22 -195 65 -450 35
-106 43 -139 25 -111 -13 20 -12 10 1 -29 8 -21 14 -29 19 -21 5 8 14 -8 25
-39 9 -29 19 -51 21 -49 2 2 -17 62 -41 133 -101 299 -141 477 -118 520 8 14
12 6 17 -36 20 -152 141 -579 191 -679 14 -28 24 -57 22 -63 -3 -7 -19 17 -35
53 -17 36 -31 58 -32 50 0 -9 -6 -6 -16 10 -14 23 -14 23 -9 3 13 -48 -7 -19
-59 85 -82 163 -156 409 -156 518 0 102 55 214 106 214 13 0 9 -9 -19 -34z
m54 -73 c-9 -16 -10 -16 -11 -1 0 9 3 25 7 35 7 16 8 17 11 1 2 -10 -1 -25 -7
-35z m-21 -20 c0 -5 -5 -15 -10 -23 -8 -12 -10 -11 -10 8 0 12 5 22 10 22 6 0
10 -3 10 -7z m34 -81 c9 -78 68 -338 112 -491 19 -68 33 -125 31 -127 -8 -8
-66 166 -93 279 -15 64 -32 113 -37 110 -5 -3 -6 8 -2 27 5 21 4 30 -3 26 -14
-8 -22 31 -17 79 3 25 2 32 -3 17 -4 -14 -7 10 -8 62 -1 96 10 106 20 18z m36
42 c0 -8 -4 -12 -10 -9 -5 3 -10 10 -10 16 0 5 5 9 10 9 6 0 10 -7 10 -16z
m70 -214 c21 -120 25 -184 8 -115 -5 22 -23 93 -39 159 -34 139 -37 182 -8
116 11 -24 29 -96 39 -160z m-56 71 c9 -39 16 -77 16 -86 0 -9 4 -14 9 -11 12
8 23 -56 15 -79 -6 -14 -4 -16 6 -10 9 5 11 4 6 -4 -5 -7 -1 -42 8 -79 26
-113 34 -164 26 -156 -12 12 -65 218 -90 349 -11 61 -22 118 -24 128 -2 9 0
17 4 17 5 0 16 -31 24 -69z m1882 -205 c35 -35 40 -51 25 -75 -14 -22 -48 -3
-81 45 -37 55 -37 64 -4 64 16 0 39 -13 60 -34z m-76 -47 l31 -50 -28 -34
c-15 -19 -77 -94 -138 -169 -92 -113 -117 -137 -152 -150 -33 -11 -41 -12 -37
-1 3 7 21 16 41 20 l35 6 -23 17 c-13 9 -34 22 -48 27 l-24 10 52 60 c132 152
251 298 251 306 0 18 9 9 40 -42z m-1723 -16 c-3 -10 -5 -4 -5 12 0 17 2 24 5
18 2 -7 2 -21 0 -30z m10 -45 c-3 -8 -6 -5 -6 6 -1 11 2 17 5 13 3 -3 4 -12 1
-19z m1934 5 c-5 -10 -38 -52 -73 -95 -125 -151 -238 -298 -238 -309 0 -20 17
-4 70 66 114 150 264 335 272 335 14 0 -5 -29 -79 -121 -37 -47 -79 -101 -93
-119 -14 -18 -29 -38 -35 -44 -5 -6 -30 -36 -55 -66 -24 -30 -48 -57 -52 -58
-5 -2 -6 -8 -2 -13 8 -13 -10 -11 -24 3 -24 24 -10 57 64 149 42 52 91 112
108 133 95 119 128 156 137 156 6 0 6 -6 0 -17z m33 -70 c-15 -21 -63 -82
-106 -135 -47 -59 -76 -102 -72 -111 3 -8 1 -18 -5 -22 -16 -10 -13 -23 7 -28
15 -4 15 -5 0 -6 -22 -1 -33 18 -19 32 18 18 13 31 -6 16 -16 -13 -16 -12 -3
6 58 81 225 293 228 290 3 -2 -8 -21 -24 -42z m-2077 -15 c-3 -8 -6 -5 -6 6
-1 11 2 17 5 13 3 -3 4 -12 1 -19z m1273 -69 c0 -4 14 -10 31 -14 17 -4 33
-13 36 -21 8 -22 23 -17 24 9 0 12 3 16 6 10 2 -7 12 -13 21 -13 15 0 15 -2 2
-10 -12 -7 -12 -12 -2 -22 19 -19 14 -33 -6 -15 -10 10 -31 17 -46 17 -15 0
-25 3 -23 8 3 4 -8 8 -24 9 -16 1 -37 7 -47 13 -14 9 -13 10 8 4 19 -5 22 -3
14 5 -11 13 -94 4 -94 -9 0 -4 11 -5 24 -3 17 4 27 -1 35 -15 7 -14 8 -23 1
-27 -13 -8 -13 -25 0 -25 6 0 10 6 10 14 0 8 4 18 10 21 11 7 64 -25 55 -33
-3 -3 -11 0 -17 6 -18 18 -35 14 -41 -9 -4 -16 -10 -19 -28 -14 -14 5 -19 4
-15 -4 5 -7 1 -9 -8 -5 -9 3 -13 11 -9 17 4 7 0 8 -13 3 -35 -15 -59 -16 -30
-2 21 9 25 15 15 20 -8 3 1 3 19 0 24 -4 32 -2 32 9 0 18 -57 50 -66 36 -3 -5
-10 -9 -17 -9 -25 0 16 26 66 41 58 17 77 19 77 8z m-497 -66 c-7 -2 -21 -2
-30 0 -10 3 -4 5 12 5 17 0 24 -2 18 -5z m70 -10 c-7 -2 -21 -2 -30 0 -10 3
-4 5 12 5 17 0 24 -2 18 -5z m287 -13 c0 -4 -16 -8 -35 -7 -34 1 -47 11 -23
19 17 6 58 -3 58 -12z m244 0 c23 -11 30 -12 34 -2 7 21 22 13 21 -10 0 -13
-3 -17 -6 -11 -8 21 -43 -4 -37 -25 4 -10 2 -13 -3 -7 -4 6 -19 12 -33 13 -20
3 -22 2 -12 -10 6 -8 9 -18 5 -21 -3 -4 2 -7 12 -7 10 0 16 -3 12 -6 -14 -14
-47 8 -47 32 0 13 -5 23 -12 22 -17 -4 -78 -65 -78 -78 0 -17 -30 -44 -38 -35
-4 4 -1 10 6 12 17 7 15 43 -3 43 -9 0 -15 -9 -15 -25 0 -14 -5 -24 -10 -22
-6 1 -16 -9 -23 -23 -8 -16 -21 -25 -35 -24 -15 0 -22 -5 -22 -18 0 -20 -4
-21 -37 -12 -13 4 -23 13 -23 20 0 26 -16 14 -18 -13 -3 -33 -7 -37 -28 -29
-11 4 -14 13 -11 27 4 15 2 19 -9 15 -9 -3 -12 -1 -9 4 3 6 0 10 -7 10 -20 0
-37 20 -31 36 2 7 12 10 21 8 13 -4 13 -3 -1 6 -18 11 -18 13 2 27 12 8 28 27
36 44 17 32 45 39 45 12 0 -15 -2 -16 -10 -3 -8 13 -10 12 -10 -2 0 -10 -5
-18 -12 -18 -6 0 -8 -3 -5 -7 4 -3 0 -14 -9 -24 -15 -16 -14 -17 5 -12 12 3
21 13 21 24 0 13 7 19 24 19 19 0 23 -4 19 -20 -3 -11 -10 -20 -15 -20 -5 0
-7 4 -3 9 3 5 1 12 -5 16 -5 3 -10 -3 -10 -14 0 -12 7 -21 15 -21 8 0 15 -4
15 -9 0 -15 -23 -19 -44 -9 -12 7 -22 6 -29 -1 -16 -16 -4 -22 47 -24 25 -1
46 -5 46 -9 0 -5 5 -8 11 -8 5 0 8 4 5 8 -3 5 10 16 29 25 19 9 35 21 35 27 0
5 7 10 15 10 8 0 15 5 15 12 0 6 -3 8 -6 5 -11 -11 -46 14 -40 28 3 8 -3 16
-12 18 -9 3 0 5 21 6 29 1 37 -3 37 -16 0 -15 -2 -16 -10 -3 -5 8 -11 12 -14
9 -3 -2 -1 -11 5 -19 8 -13 11 -13 23 2 7 10 27 21 44 24 18 4 34 14 37 25 4
11 11 19 16 19 13 0 11 -18 -3 -23 -7 -2 -10 -8 -6 -12 4 -4 14 -3 21 3 8 7
29 9 50 5 40 -6 54 14 17 24 -11 3 -20 10 -20 15 0 5 3 8 8 6 4 -2 20 -10 36
-18z m95 -26 c1 -10 10 -28 20 -38 10 -13 11 -17 2 -11 -9 5 -19 2 -28 -10
-12 -17 -13 -16 -9 13 2 18 -1 32 -5 32 -5 0 -9 9 -9 21 0 26 24 20 29 -7z
m-373 -39 l28 -26 -21 -20 c-28 -28 -69 -18 -50 12 6 10 17 19 24 19 7 0 13 5
13 10 0 6 -11 10 -25 10 -14 0 -25 5 -25 10 0 18 29 10 56 -15z m347 -1 c10
-11 -12 -44 -29 -44 -12 0 -15 -6 -10 -24 4 -15 0 -28 -9 -36 -8 -7 -12 -16
-9 -21 9 -15 -6 -49 -23 -49 -13 0 -13 3 -2 16 10 13 10 17 -2 25 -8 5 -9 9
-3 9 7 0 19 11 28 25 22 34 1 34 -39 0 -69 -58 -101 -73 -124 -61 -12 7 -19
15 -15 18 3 4 -3 4 -14 2 -12 -4 -22 0 -25 10 -4 11 -1 16 11 15 26 -1 54 -14
53 -24 -1 -6 4 -10 9 -9 32 3 35 4 24 12 -7 4 -8 15 -3 27 7 19 8 19 8 -2 1
-13 5 -23 11 -23 5 0 7 13 4 30 -5 23 -2 31 12 36 11 3 27 10 36 15 24 12 28
11 22 -6 -4 -8 -3 -15 1 -15 11 0 34 27 28 34 -4 3 5 6 18 6 19 0 21 2 9 10
-13 9 -13 11 0 20 18 11 24 12 33 4z m177 -49 c26 -31 48 -84 36 -90 -6 -2 0
-2 14 1 24 5 25 5 5 -11 -20 -16 -20 -16 -1 -31 11 -8 26 -14 33 -14 7 0 13
-5 13 -11 0 -6 -3 -9 -7 -7 -5 3 -23 11 -40 18 -18 8 -33 20 -33 27 0 7 -4 13
-10 13 -5 0 -10 -5 -10 -11 0 -8 -8 -7 -22 3 -13 7 -39 15 -58 16 -28 1 -31 0
-15 -7 18 -8 18 -10 3 -12 -47 -5 -53 -3 -50 14 2 9 -4 20 -13 23 -18 7 -21
25 -3 22 7 -2 12 3 13 11 0 25 31 36 50 18 9 -9 23 -17 31 -17 8 0 17 -6 20
-14 5 -12 22 -14 44 -6 3 1 8 2 11 2 10 -2 -2 37 -12 44 -5 3 -9 -5 -10 -18 0
-23 0 -23 -9 -1 -9 22 -43 39 -60 28 -5 -3 -10 -2 -10 4 0 5 15 12 33 14 17 2
35 5 38 5 4 1 12 -5 19 -13z m384 -23 c2 -4 -11 -6 -30 -4 -19 2 -34 6 -34 8
0 8 59 4 64 -4z m-1393 -25 c-10 -9 -11 -8 -5 6 3 10 9 15 12 12 3 -3 0 -11
-7 -18z m1080 13 c13 0 11 -28 -3 -36 -8 -5 -9 -2 -5 9 3 10 2 17 -2 17 -5 0
-11 -6 -13 -12 -3 -7 -7 -2 -11 11 -4 17 -2 21 10 17 8 -3 19 -6 24 -6z m-501
-10 c0 -5 -4 -10 -10 -10 -5 0 -10 5 -10 10 0 6 5 10 10 10 6 0 10 -4 10 -10z
m623 -23 c-3 -7 4 -3 17 8 19 16 22 17 17 4 -5 -16 9 -39 25 -39 4 0 8 7 8 15
0 9 -6 12 -17 8 -11 -4 -14 -3 -9 5 13 21 25 13 47 -30 19 -38 20 -43 5 -53
-9 -7 -13 -15 -10 -18 3 -3 -11 -13 -32 -22 -29 -12 -43 -14 -56 -6 -10 6 -25
11 -33 11 -8 0 -15 7 -15 15 0 9 -6 12 -16 8 -8 -3 -13 -12 -10 -19 3 -8 0
-11 -9 -8 -20 8 -46 -9 -36 -24 6 -10 16 -9 48 2 22 8 46 11 52 6 9 -5 3 -10
-16 -14 -15 -4 -44 -11 -63 -15 -169 -42 -248 -47 -314 -21 -18 6 -84 10 -170
8 -129 -3 -145 -1 -188 20 -26 12 -52 22 -58 22 -6 0 -8 5 -5 10 3 6 -5 10
-19 10 -30 0 -105 42 -86 48 7 3 16 -1 20 -8 11 -18 50 -3 43 17 -4 10 -2 14
5 9 17 -10 11 -48 -8 -41 -13 5 -13 4 -1 -7 11 -11 15 -10 24 4 9 14 12 14 21
2 12 -16 81 -22 109 -10 10 5 17 4 17 -2 0 -11 -33 -22 -70 -22 l-25 0 29 -15
c16 -9 34 -12 40 -7 6 4 27 9 46 11 47 4 55 10 33 27 -10 7 -13 14 -7 14 6 0
17 -7 25 -16 7 -8 20 -13 29 -11 20 5 53 -11 46 -22 -3 -4 10 -8 27 -9 26 -1
37 5 50 27 20 35 14 43 -21 25 -17 -9 -30 -10 -38 -3 -6 5 -18 7 -26 4 -8 -3
-21 1 -28 10 -11 13 -7 15 29 15 22 0 41 -4 41 -8 0 -5 7 -9 16 -9 15 0 15 1
0 12 -9 7 -16 15 -16 18 0 10 70 40 77 33 3 -3 1 -6 -5 -6 -7 0 -12 -6 -12
-14 0 -9 -7 -12 -22 -9 -21 4 -21 4 3 -9 14 -9 47 -14 79 -13 45 2 50 0 36
-11 -9 -6 -30 -10 -47 -7 -23 3 -29 1 -29 -14 0 -15 2 -16 11 -3 9 13 10 13 6
0 -2 -8 -13 -16 -25 -18 -12 -2 -22 -10 -22 -19 0 -11 7 -14 25 -11 14 3 25 1
25 -3 0 -5 7 -9 17 -9 15 0 15 1 -1 19 -16 17 -16 19 0 25 11 4 15 2 11 -8 -6
-16 19 -30 28 -16 4 6 1 10 -6 10 -8 0 -8 4 1 15 7 9 18 14 24 12 6 -2 19 5
29 16 9 11 17 15 17 9 0 -6 -5 -14 -11 -18 -8 -4 -7 -9 2 -15 7 -4 19 -3 26 3
7 6 25 8 39 5 18 -3 33 2 50 18 13 12 21 25 18 28 -3 3 4 3 15 0 12 -3 24 -9
27 -14 3 -5 -3 -6 -13 -2 -10 3 -15 2 -11 -2 12 -13 -52 -47 -77 -41 -16 4
-30 -2 -47 -19 -18 -18 -35 -24 -61 -23 -21 1 -40 -2 -44 -5 -3 -4 14 -8 38
-8 62 -2 83 1 91 14 4 7 12 6 24 -4 10 -8 15 -9 11 -2 -8 13 18 24 63 25 33 1
42 18 9 18 -19 0 -19 1 -5 16 9 8 30 16 46 16 38 1 49 17 25 34 -10 8 -15 17
-10 21 4 5 10 3 12 -4 3 -8 13 -9 36 -2 18 5 47 9 65 9 28 0 31 -2 20 -14 -8
-8 -17 -10 -24 -5 -6 5 -23 4 -40 -1 l-29 -10 33 5 c31 4 45 -8 20 -18 -10 -3
-9 -8 2 -19 13 -12 21 -12 50 -2 l35 13 -30 1 c-29 2 -29 2 8 12 27 7 37 15
37 30 0 10 -4 17 -8 14 -4 -2 -28 5 -52 16 -25 12 -52 20 -60 19 -11 -1 -10 2
4 13 21 17 40 12 29 -7z m203 -25 l-29 -27 23 32 c13 18 26 30 29 28 3 -3 -8
-18 -23 -33z m-601 19 c3 -5 2 -12 -3 -15 -5 -3 -9 1 -9 9 0 17 3 19 12 6z
m-549 -23 c19 -21 19 -21 -4 -15 -18 4 -22 2 -18 -9 7 -18 -2 -17 -34 1 -14 8
-38 15 -55 16 l-30 1 35 8 c21 5 36 5 38 -1 2 -5 10 -9 18 -9 8 0 11 6 8 15
-9 23 20 18 42 -7z m594 8 c0 -11 -19 -15 -25 -6 -3 5 1 10 9 10 9 0 16 -2 16
-4z m344 -5 c5 -8 -84 -3 -93 5 -2 2 16 4 42 4 25 0 48 -4 51 -9z m-1589 -11
c-3 -5 -12 -10 -18 -10 -7 0 -6 4 3 10 19 12 23 12 15 0z m705 -10 c0 -11 -4
-20 -10 -20 -5 0 -10 2 -10 4 0 2 -3 11 -6 20 -4 11 -1 16 10 16 9 0 16 -8 16
-20z m187 3 c-4 -3 -1 -13 6 -21 10 -13 9 -15 -3 -8 -8 4 -6 0 4 -8 14 -12 16
-16 5 -16 -8 0 -19 4 -25 8 -13 9 -27 45 -15 37 5 -3 12 -1 16 5 3 5 9 10 12
10 4 0 3 -3 0 -7z m70 -10 c-9 -9 -20 -13 -24 -9 -4 4 -1 11 7 16 25 16 35 11
17 -7z m283 -3 c14 -10 21 -22 17 -27 -5 -4 -11 -3 -15 3 -4 6 -15 13 -24 17
-10 3 -18 11 -18 17 0 15 12 12 40 -10z m-420 -21 c0 -5 5 -7 10 -4 6 3 10 1
10 -4 0 -13 -47 -15 -54 -2 -4 5 0 12 6 14 21 9 28 8 28 -4z m150 1 c0 -5 -4
-10 -10 -10 -5 0 -10 5 -10 10 0 6 5 10 10 10 6 0 10 -4 10 -10z m354 -19 c3
-5 -3 -11 -13 -14 -14 -3 -18 -1 -14 9 6 16 19 18 27 5z m52 -4 c4 -4 0 -7 -9
-7 -9 0 -18 4 -21 9 -7 10 20 9 30 -2z m-146 -288 c30 -11 68 -25 83 -31 15
-6 26 -13 23 -15 -6 -6 -124 14 -170 28 -19 6 -33 6 -40 -1 -5 -5 -37 -10 -70
-9 l-61 0 39 15 c21 7 54 15 73 18 18 2 37 6 40 10 10 10 25 7 83 -15z m163
-46 c-7 -2 -21 -2 -30 0 -10 3 -4 5 12 5 17 0 24 -2 18 -5z m-805 -14 c26 -7
52 -16 57 -21 7 -7 2 -8 -12 -3 -44 13 -46 -6 -6 -47 26 -28 31 -37 16 -29
-13 6 -23 15 -23 20 0 4 -11 14 -25 21 -13 7 -21 18 -18 23 4 6 0 8 -10 4 -10
-3 -17 -3 -17 2 0 5 -12 12 -27 16 -26 7 -26 8 -8 15 11 5 21 9 23 9 2 1 24
-4 50 -10z m-167 -198 c11 -24 18 -45 16 -48 -11 -10 -51 95 -53 141 l-3 51
10 -50 c5 -27 19 -70 30 -94z m1276 133 c-3 -3 -12 -4 -19 -1 -8 3 -5 6 6 6
11 1 17 -2 13 -5z m-479 -61 c-10 -2 -26 -2 -35 0 -10 3 -2 5 17 5 19 0 27 -2
18 -5z m-161 -19 c-3 -3 -12 -4 -19 -1 -8 3 -5 6 6 6 11 1 17 -2 13 -5z m257
-3 c-17 -4 -37 -11 -45 -15 -8 -4 -5 0 5 8 11 9 31 16 45 15 24 -1 24 -2 -5
-8z m79 -8 c-7 -2 -21 -2 -30 0 -10 3 -4 5 12 5 17 0 24 -2 18 -5z m90 0 c-7
-2 -19 -2 -25 0 -7 3 -2 5 12 5 14 0 19 -2 13 -5z m-243 -27 c0 -2 -7 -7 -16
-10 -8 -3 -12 -2 -9 4 6 10 25 14 25 6z m-40 -21 c0 -7 -63 -45 -75 -45 -5 0
8 11 30 24 47 28 45 27 45 21z m-97 -52 c-7 -2 -19 -2 -25 0 -7 3 -2 5 12 5
14 0 19 -2 13 -5z m371 -147 c69 -24 191 -135 170 -154 -4 -4 -9 -1 -11 6 -4
10 -8 10 -19 1 -20 -16 -18 -40 3 -32 11 4 14 3 9 -5 -12 -19 -26 -14 -36 13
-7 19 -17 25 -39 25 -16 0 -33 5 -36 10 -3 6 -4 10 -1 10 2 0 12 3 22 7 12 4
15 3 10 -5 -5 -8 0 -11 14 -9 43 7 44 57 1 57 -10 0 -27 9 -38 19 -12 11 -23
18 -25 16 -2 -2 -22 3 -43 11 l-40 14 45 -5 45 -5 -40 13 c-59 19 -123 0 -169
-50 -19 -21 -36 -44 -36 -51 0 -7 -5 -10 -10 -7 -7 4 -8 -3 -4 -21 5 -19 4
-25 -5 -20 -7 5 -11 -2 -12 -21 0 -26 -1 -27 -9 -6 -6 16 -3 35 15 70 28 59
63 92 118 114 53 21 72 22 121 5z m-1082 -38 c-7 -7 -12 -8 -12 -2 0 6 3 14 7
17 3 4 9 5 12 2 2 -3 -1 -11 -7 -17z m993 -18 c4 -6 10 -8 14 -6 4 3 8 -5 8
-17 2 -15 0 -18 -6 -9 -6 10 -10 9 -14 -7 -2 -11 -1 -21 3 -23 5 -2 10 -16 12
-33 3 -26 -1 -30 -22 -33 -14 -2 -20 1 -14 5 5 4 10 22 10 38 -1 26 -5 30 -26
28 -14 -1 -19 1 -12 3 6 3 12 12 12 20 0 12 -4 12 -20 4 -12 -7 -20 -7 -20 -1
0 5 12 16 28 24 34 19 39 19 47 7z m93 -13 c6 -5 12 -15 12 -21 0 -6 -5 -3
-11 6 -5 9 -16 15 -23 12 -8 -3 -16 -1 -20 4 -7 12 26 12 42 -1z m-184 -38
c-2 -4 0 -10 6 -14 5 -3 10 -17 10 -31 0 -20 -4 -25 -22 -22 -11 2 -23 -3 -25
-9 -8 -22 28 -27 58 -9 21 12 27 13 24 4 -8 -21 37 -20 65 2 14 11 19 20 13
20 -7 0 -13 9 -13 20 0 20 0 20 21 -1 13 -13 27 -18 40 -14 15 5 19 2 19 -19
0 -20 4 -24 18 -20 14 5 15 4 2 -5 -13 -9 -13 -11 0 -11 8 0 25 -3 38 -6 13
-4 22 -2 22 5 0 6 -8 11 -17 12 -10 0 -13 3 -6 5 7 3 20 1 29 -4 26 -15 94 6
88 27 -3 9 2 5 10 -9 20 -33 20 -40 -3 -40 -37 0 -100 -36 -134 -77 l-34 -42
1 34 c0 18 6 33 11 32 6 -1 9 6 7 16 -4 21 -38 58 -46 50 -3 -3 -32 -5 -65 -5
-52 1 -59 -1 -55 -16 3 -11 -1 -9 -12 6 -20 27 -38 29 -31 2 3 -11 1 -20 -4
-20 -5 0 -9 6 -9 13 0 6 -11 17 -25 24 -28 13 -35 -1 -8 -16 10 -5 16 -12 13
-14 -3 -3 -13 1 -23 8 -17 12 -17 17 -4 54 7 23 17 38 22 34 4 -5 6 4 3 18 -3
17 0 26 8 26 7 0 11 -4 8 -8z m723 -65 c-3 -3 -12 -4 -19 -1 -8 3 -5 6 6 6 11
1 17 -2 13 -5z m-30 -56 c-3 -8 -6 -5 -6 6 -1 11 2 17 5 13 3 -3 4 -12 1 -19z
m-32 -17 c-3 -6 -15 -11 -26 -11 -11 0 -19 -7 -19 -16 0 -8 -5 -12 -11 -9 -7
5 -4 13 7 26 9 10 20 16 25 14 4 -3 11 0 14 6 4 5 9 8 12 5 3 -2 2 -9 -2 -15z
m-510 -1 c-26 -11 -35 -12 -35 -2 0 4 12 8 28 9 23 1 24 1 7 -7z m228 -14 c4
-11 1 -13 -11 -10 -9 3 -4 -2 12 -11 24 -14 30 -15 37 -3 13 20 11 26 -13 31
-19 4 -18 5 6 6 25 1 28 -2 22 -24 -5 -18 -1 -28 14 -37 11 -7 20 -20 20 -29
0 -9 9 -24 20 -34 11 -10 18 -20 16 -22 -6 -6 36 -53 47 -53 23 0 85 -36 112
-66 29 -31 31 -32 43 -14 10 16 9 18 -2 14 -11 -4 -13 0 -9 15 6 25 23 38 23
19 0 -10 3 -9 11 2 8 11 9 8 4 -14 -3 -15 -13 -35 -20 -43 -8 -8 -15 -19 -15
-24 0 -14 -20 -11 -36 5 -20 21 -66 6 -71 -22 -4 -26 5 -28 23 -4 12 16 14 16
27 -2 12 -16 18 -17 45 -8 36 12 36 12 21 -43 -16 -60 -50 -133 -65 -139 -8
-3 -13 -2 -13 2 1 4 0 16 -1 27 -2 17 -3 16 -9 -5 -4 -14 -13 -24 -20 -22 -7
1 -22 0 -33 -4 -16 -5 -18 -8 -7 -15 7 -4 10 -11 6 -15 -4 -4 -13 -2 -20 5 -9
10 -9 15 4 24 9 7 18 21 20 32 3 12 12 20 24 20 13 0 21 8 23 24 3 22 1 23
-37 19 -23 -2 -41 0 -41 4 0 5 -5 8 -11 8 -6 0 -23 10 -37 21 l-27 22 28 -7
c18 -4 35 -2 45 6 12 10 16 10 19 1 3 -7 19 -14 36 -14 24 -1 26 -3 10 -6 -29
-6 -30 -21 -1 -25 18 -2 24 -12 31 -48 l9 -44 14 39 c30 87 34 107 18 101 -8
-3 -12 -2 -9 3 3 5 -4 12 -15 16 -11 3 -20 12 -20 18 0 7 -6 1 -13 -12 -6 -14
-18 -26 -26 -29 -9 -3 -11 0 -6 8 4 7 2 16 -6 21 -18 11 -76 11 -83 0 -3 -5
-14 -7 -25 -4 -12 3 -24 -3 -35 -18 l-16 -23 -25 24 c-14 13 -25 31 -26 39 0
9 -9 30 -20 46 -10 17 -23 40 -29 53 -5 12 -18 22 -28 22 -21 0 -72 36 -72 50
0 5 7 7 16 3 12 -4 14 0 9 20 -7 27 9 67 27 67 7 0 6 -6 -3 -18 -8 -10 2 -1
21 20 19 22 46 45 60 52 14 8 26 14 26 15 1 1 4 -6 7 -13z m377 -32 c0 -3 -10
0 -21 7 -16 8 -28 8 -47 0 -13 -7 -27 -10 -29 -7 -8 8 7 26 23 26 8 0 14 5 14
11 0 6 14 1 30 -11 17 -12 30 -23 30 -26z m-710 -11 c3 -3 -6 -3 -20 0 -14 4
-38 7 -53 7 -16 0 -26 4 -23 9 6 9 85 -4 96 -16z m570 -3 c0 -5 -4 -10 -10
-10 -5 0 -10 5 -10 10 0 6 5 10 10 10 6 0 10 -4 10 -10z m-632 -7 c-10 -2 -26
-2 -35 0 -10 3 -2 5 17 5 19 0 27 -2 18 -5z m142 -3 c0 -12 -8 -12 -35 0 -18
8 -17 9 8 9 15 1 27 -3 27 -9z m-775 -37 l20 -16 -20 8 c-11 5 -42 11 -70 15
l-50 7 50 1 c32 1 57 -4 70 -15z m1387 -13 c7 -11 21 -20 30 -20 13 0 18 -8
18 -26 0 -16 -4 -23 -12 -18 -8 5 -9 0 -4 -17 4 -13 9 -33 11 -44 6 -25 -16
-135 -27 -135 -5 0 -1 -14 8 -31 8 -17 11 -28 5 -25 -6 4 -11 0 -11 -8 0 -9
-4 -16 -8 -16 -10 0 -13 71 -4 85 4 5 12 34 18 64 18 86 -11 171 -58 171 -11
0 -16 5 -13 10 3 6 1 10 -5 10 -6 0 -8 5 -5 10 10 17 44 11 57 -10z m-797 -20
c-3 -5 -16 -10 -28 -11 -21 0 -21 -1 -2 -10 19 -9 19 -9 -1 -6 -12 3 -32 -2
-45 -10 -24 -14 -24 -14 6 -8 22 4 26 3 15 -5 -8 -5 -27 -10 -42 -10 -22 0
-26 -4 -23 -21 3 -16 1 -18 -9 -10 -17 14 -47 -18 -50 -53 -1 -18 -4 -22 -13
-14 -22 18 42 99 107 134 55 30 96 41 85 24z m1040 4 c13 -5 14 -8 3 -15 -19
-12 -25 -11 -25 6 0 17 0 17 22 9z m-1532 -11 c-7 -2 -19 -2 -25 0 -7 3 -2 5
12 5 14 0 19 -2 13 -5z m44 -9 c-3 -3 -12 -4 -19 -1 -8 3 -5 6 6 6 11 1 17 -2
13 -5z m480 0 c-3 -3 -12 -4 -19 -1 -8 3 -5 6 6 6 11 1 17 -2 13 -5z m734 -14
c20 -11 27 -40 9 -40 -5 0 -9 6 -7 12 1 9 -10 12 -33 11 -22 -1 -30 1 -21 7
11 6 8 9 -10 13 -19 3 -17 5 9 6 18 0 42 -4 53 -9z m-696 -10 c4 -6 11 -7 17
-4 7 4 8 2 4 -4 -4 -7 -24 -11 -44 -11 -35 2 -35 2 -7 7 l30 5 -25 7 c-23 7
-23 8 -3 9 12 1 25 -4 28 -9z m565 0 c0 -5 -5 -10 -11 -10 -5 0 -7 5 -4 10 3
6 8 10 11 10 2 0 4 -4 4 -10z m60 -10 c0 -13 -26 -19 -41 -9 -12 8 -12 10 0
18 15 10 41 4 41 -9z m-690 0 c0 -5 -9 -10 -21 -10 -11 0 -17 5 -14 10 3 6 13
10 21 10 8 0 14 -4 14 -10z m165 0 c13 -6 15 -9 5 -9 -8 0 -22 4 -30 9 -18 12
-2 12 25 0z m905 -22 c0 -5 -7 -3 -15 6 -8 8 -15 18 -15 22 0 3 7 1 15 -6 8
-7 15 -17 15 -22z m-325 -17 c-8 -27 -17 -26 -41 0 -19 22 -19 22 9 15 18 -4
27 -2 27 5 0 7 3 10 6 6 3 -3 3 -15 -1 -26z m290 12 c10 -14 10 -20 -1 -31
-18 -18 -44 -8 -43 15 0 17 1 17 7 1 5 -11 12 -14 21 -9 9 6 10 11 2 15 -12 8
-15 26 -5 26 4 0 12 -8 19 -17z m-705 -38 c0 -6 9 -16 20 -23 21 -13 45 -58
41 -79 -1 -6 10 -20 25 -32 27 -21 25 -42 -4 -40 -14 0 -13 2 3 8 19 8 19 8
-3 20 -12 6 -25 23 -28 36 -3 14 -11 25 -16 25 -6 0 -8 -10 -5 -22 4 -12 1
-28 -5 -35 -8 -10 -6 -13 6 -13 9 0 16 -2 16 -5 0 -13 -24 -55 -32 -55 -5 0
-6 -4 -3 -10 3 -5 1 -10 -5 -10 -8 0 -9 6 -4 18 4 9 7 32 6 50 0 17 3 32 9 32
11 0 0 53 -13 58 -4 2 -5 8 -2 14 8 13 -14 28 -43 28 -30 0 -29 -16 2 -36 14
-9 25 -26 25 -37 0 -20 0 -20 -15 -1 -18 23 -19 14 -3 -22 l12 -26 13 33 13
34 -6 -40 c-4 -22 -7 -48 -6 -57 0 -10 -1 -18 -4 -18 -11 0 -56 113 -59 148
-2 20 -6 46 -11 56 -5 13 -3 21 4 24 7 2 10 7 7 11 -2 5 11 1 30 -8 19 -9 34
-21 35 -26z m-470 5 c0 -5 -4 -10 -10 -10 -5 0 -10 5 -10 10 0 6 5 10 10 10 6
0 10 -4 10 -10z m1215 -20 c-3 -5 -12 -10 -18 -10 -7 0 -6 4 3 10 19 12 23 12
15 0z m-1188 -6 c-3 -3 -12 -4 -19 -1 -8 3 -5 6 6 6 11 1 17 -2 13 -5z m-37
-14 c0 -5 -4 -10 -10 -10 -5 0 -10 5 -10 10 0 6 5 10 10 10 6 0 10 -4 10 -10z
m100 0 c0 -5 -7 -10 -15 -10 -8 0 -15 5 -15 10 0 6 7 10 15 10 8 0 15 -4 15
-10z m1053 3 c-7 -2 -13 -13 -13 -23 0 -10 6 -21 13 -23 7 -3 5 -6 -5 -6 -13
-1 -18 7 -18 29 0 22 5 30 18 29 10 0 12 -3 5 -6z m67 -7 c0 -3 -4 -8 -10 -11
-5 -3 -10 -1 -10 4 0 6 5 11 10 11 6 0 10 -2 10 -4z m-1160 -29 c0 -16 -9 -28
-25 -35 -20 -9 -25 -9 -25 2 0 8 8 13 18 12 12 -1 16 5 15 22 -2 12 2 22 7 22
6 0 10 -11 10 -23z m1110 19 c0 -3 -4 -8 -10 -11 -5 -3 -10 -1 -10 4 0 6 5 11
10 11 6 0 10 -2 10 -4z m-1204 -33 c16 -15 21 -24 12 -20 -10 3 -20 2 -23 -3
-12 -20 -24 -9 -23 20 1 17 2 30 3 30 1 0 15 -12 31 -27z m134 7 c0 -5 -2 -10
-4 -10 -3 0 -8 5 -11 10 -3 6 -1 10 4 10 6 0 11 -4 11 -10z m948 -20 c28 0 33
-3 24 -12 -7 -7 -12 -16 -12 -20 0 -15 27 -8 45 12 18 20 52 29 41 11 -4 -5 0
-12 6 -15 7 -3 5 -4 -6 -3 -26 3 -46 -30 -26 -43 13 -8 13 -10 -2 -10 -9 0
-19 4 -22 9 -3 5 -21 10 -38 10 -55 2 -83 7 -80 14 1 4 2 19 2 33 0 20 4 25
16 20 9 -3 32 -6 52 -6z m-948 -10 c0 -5 -9 -10 -21 -10 -11 0 -17 -4 -14 -10
4 -6 -7 -9 -27 -9 -23 1 -26 3 -10 6 12 2 22 8 22 13 0 7 17 15 43 19 4 0 7
-3 7 -9z m180 0 c0 -6 9 -6 24 0 18 6 26 5 30 -5 3 -10 0 -12 -12 -9 -15 5
-15 4 1 -9 9 -8 17 -25 17 -38 0 -19 -2 -21 -9 -9 -6 8 -7 18 -5 22 3 4 -3 8
-14 8 -22 0 -65 34 -55 44 10 9 23 7 23 -4z m450 -10 c0 -5 -4 -10 -10 -10 -5
0 -10 5 -10 10 0 6 5 10 10 10 6 0 10 -4 10 -10z m470 0 c0 -5 -5 -10 -11 -10
-5 0 -7 5 -4 10 3 6 8 10 11 10 2 0 4 -4 4 -10z m-1200 -10 c0 -5 -2 -10 -4
-10 -3 0 -8 5 -11 10 -3 6 -1 10 4 10 6 0 11 -4 11 -10z m250 -6 c0 5 6 3 14
-3 21 -18 16 -48 -8 -46 -11 1 -22 8 -24 16 -3 11 -2 11 6 1 7 -10 11 -10 22
3 11 14 8 15 -26 9 -42 -6 -58 -14 -31 -14 12 0 17 -8 17 -26 0 -14 -4 -23
-10 -19 -5 3 -6 13 -3 21 5 13 1 15 -18 9 -18 -5 -21 -4 -9 4 8 6 11 11 5 11
-5 0 3 11 19 25 22 19 32 22 38 13 4 -7 8 -9 8 -4z m-150 -4 c0 -5 -4 -10 -10
-10 -5 0 -10 5 -10 10 0 6 5 10 10 10 6 0 10 -4 10 -10z m1067 -6 c-3 -3 -12
-4 -19 -1 -8 3 -5 6 6 6 11 1 17 -2 13 -5z m-1160 -30 c19 -21 21 -25 6 -19
-10 4 -23 8 -30 9 -7 1 -16 6 -20 11 -5 4 -2 5 6 0 11 -6 13 -4 8 8 -9 24 2
21 30 -9z m660 19 c-10 -3 -16 -11 -13 -18 2 -7 -4 -21 -14 -30 -11 -10 -22
-26 -25 -35 -5 -15 -9 -16 -30 -6 -15 6 -25 20 -25 32 0 24 42 50 61 39 7 -5
10 -4 5 3 -6 10 14 20 44 20 9 0 7 -2 -3 -5z m-574 -10 c-7 -2 -19 -2 -25 0
-7 3 -2 5 12 5 14 0 19 -2 13 -5z m600 -10 c-7 -2 -13 -9 -13 -14 0 -6 5 -7
12 -3 7 5 8 3 3 -5 -5 -9 -11 -9 -17 -3 -12 12 -2 32 15 31 9 0 9 -2 0 -6z
m237 -30 c0 -23 -4 -33 -9 -27 -9 8 -4 64 5 64 2 0 4 -17 4 -37z m-820 18 c0
-6 -4 -13 -10 -16 -5 -3 -10 1 -10 9 0 9 5 16 10 16 6 0 10 -4 10 -9z m50 -1
c0 -5 -5 -10 -11 -10 -5 0 -7 5 -4 10 3 6 8 10 11 10 2 0 4 -4 4 -10z m700 0
c0 -5 -4 -10 -10 -10 -5 0 -10 5 -10 10 0 6 5 10 10 10 6 0 10 -4 10 -10z
m220 -10 c-8 -5 -17 -7 -19 -4 -3 3 1 9 9 14 8 5 17 7 19 4 3 -3 -1 -9 -9 -14z
m52 -6 c-13 -9 -26 -13 -30 -9 -8 8 17 25 38 25 9 0 6 -6 -8 -16z m-1162 -18
c0 -14 10 -32 22 -40 29 -21 33 -20 35 5 2 16 -1 19 -9 11 -16 -16 -38 4 -37
32 1 20 2 18 15 -23 3 -9 8 -10 17 -3 21 18 67 33 67 22 0 -6 -9 -10 -20 -10
-11 0 -20 -4 -20 -10 0 -14 33 -12 49 3 11 10 13 9 9 -3 -3 -8 -20 -18 -39
-21 -19 -4 -25 -7 -14 -8 20 -2 20 -3 1 -10 -18 -7 -18 -8 5 -14 35 -10 46 -8
29 4 -13 9 -13 10 0 6 8 -2 16 -9 16 -15 3 -25 5 -27 14 -12 6 9 10 10 10 3 0
-18 -21 -27 -30 -13 -4 7 -15 10 -25 7 -10 -4 -14 -3 -9 4 4 6 -1 9 -12 7 -25
-4 -81 47 -87 78 -2 13 0 24 4 24 5 0 9 -11 9 -24z m330 15 c0 -5 -9 -7 -20
-4 -11 3 -20 7 -20 9 0 2 9 4 20 4 11 0 20 -4 20 -9z m110 -1 c0 -5 -4 -10
-10 -10 -5 0 -10 5 -10 10 0 6 5 10 10 10 6 0 10 -4 10 -10z m-223 -6 c-3 -3
-12 -4 -19 -1 -8 3 -5 6 6 6 11 1 17 -2 13 -5z m790 -16 c-3 -8 -6 -5 -6 6 -1
11 2 17 5 13 3 -3 4 -12 1 -19z m113 8 c0 -11 -19 -15 -25 -6 -3 5 1 10 9 10
9 0 16 -2 16 -4z m-973 -28 c-3 -8 -6 -5 -6 6 -1 11 2 17 5 13 3 -3 4 -12 1
-19z m83 -23 c0 -5 -5 -3 -10 5 -9 13 -10 13 -10 0 0 -13 -1 -13 -10 0 -8 13
-10 13 -10 -1 0 -24 -26 -31 -41 -11 -11 14 -11 15 1 5 11 -10 18 -7 38 14 19
21 26 23 33 12 5 -8 9 -18 9 -24z m460 25 c0 -5 -4 -10 -10 -10 -5 0 -10 5
-10 10 0 6 5 10 10 10 6 0 10 -4 10 -10z m360 6 c0 -11 -19 -15 -25 -6 -3 5 1
10 9 10 9 0 16 -2 16 -4z m-670 -26 c-8 -5 -19 -10 -25 -10 -5 0 -3 5 5 10 8
5 20 10 25 10 6 0 3 -5 -5 -10z m-63 -16 c-3 -3 -12 -4 -19 -1 -8 3 -5 6 6 6
11 1 17 -2 13 -5z m379 -6 c7 -11 -37 -10 -56 2 -10 6 -5 9 18 8 18 -1 35 -5
38 -10z m-403 -15 c-7 -2 -19 -2 -25 0 -7 3 -2 5 12 5 14 0 19 -2 13 -5z
m-116 -18 c0 -8 -4 -12 -9 -9 -5 3 -6 10 -3 15 9 13 12 11 12 -6z m38 -5 c3
-6 -1 -7 -9 -4 -18 7 -21 14 -7 14 6 0 13 -4 16 -10z"/>
<path d="M1500 3515 c0 -5 5 -17 10 -25 5 -8 10 -10 10 -5 0 6 -5 17 -10 25
-5 8 -10 11 -10 5z"/>
<path d="M1511 3784 c0 -11 3 -14 6 -6 3 7 2 16 -1 19 -3 4 -6 -2 -5 -13z"/>
<path d="M2650 3110 c-12 -8 -11 -10 7 -10 12 0 25 5 28 10 8 13 -15 13 -35 0z"/>
<path d="M2495 3100 c19 -8 73 -14 64 -6 -2 2 -22 6 -44 9 -28 5 -34 4 -20 -3z"/>
<path d="M2540 3070 c-11 -7 -12 -12 -4 -20 8 -8 13 -6 17 9 3 12 4 21 4 21
-1 0 -9 -5 -17 -10z"/>
<path d="M2625 3160 c-3 -5 -2 -10 4 -10 5 0 13 5 16 10 3 6 2 10 -4 10 -5 0
-13 -4 -16 -10z"/>
<path d="M2847 3123 c-13 -12 -7 -33 8 -33 8 0 15 5 15 11 0 5 -6 7 -12 3 -9
-5 -9 -2 1 9 13 16 2 25 -12 10z"/>
<path d="M3035 3110 c3 -5 22 -12 41 -16 25 -5 32 -9 22 -15 -10 -7 -9 -9 5
-9 9 0 17 7 17 15 0 8 -9 15 -19 15 -11 0 -23 5 -26 10 -3 6 -15 10 -26 10
-11 0 -18 -4 -14 -10z"/>
<path d="M2669 2931 c11 -7 11 -9 0 -14 -8 -3 -4 -6 9 -6 25 -1 30 14 6 23
-23 9 -31 7 -15 -3z"/>
<path d="M2716 2925 c4 -8 11 -15 16 -15 6 0 5 6 -2 15 -7 8 -14 15 -16 15 -2
0 -1 -7 2 -15z"/>
<path d="M2750 2929 c0 -5 5 -7 10 -4 6 3 10 8 10 11 0 2 -4 4 -10 4 -5 0 -10
-5 -10 -11z"/>
<path d="M3010 2929 c0 -5 10 -9 22 -9 12 0 18 3 14 7 -10 11 -36 12 -36 2z"/>
<path d="M2858 2683 c7 -3 16 -2 19 1 4 3 -2 6 -13 5 -11 0 -14 -3 -6 -6z"/>
<path d="M2310 2630 c8 -5 22 -9 30 -9 10 0 8 3 -5 9 -27 12 -43 12 -25 0z"/>
<path d="M3362 2110 c-6 -11 -8 -21 -3 -25 5 -3 13 4 16 16 9 28 2 33 -13 9z"/>
<path d="M3175 2030 c3 -5 8 -10 11 -10 2 0 4 5 4 10 0 6 -5 10 -11 10 -5 0
-7 -4 -4 -10z"/>
<path d="M3208 2033 c7 -3 16 -2 19 1 4 3 -2 6 -13 5 -11 0 -14 -3 -6 -6z"/>
<path d="M3383 2015 c-18 -8 -33 -17 -33 -20 0 -5 70 21 79 30 9 9 -14 4 -46
-10z"/>
<path d="M3310 1990 c0 -5 7 -7 15 -4 8 4 15 8 15 10 0 2 -7 4 -15 4 -8 0 -15
-4 -15 -10z"/>
<path d="M3286 1933 c-6 -14 -5 -15 5 -6 7 7 10 15 7 18 -3 3 -9 -2 -12 -12z"/>
<path d="M3400 1948 c0 -9 -9 -20 -20 -23 -11 -4 -18 -11 -14 -16 3 -5 15 -7
26 -3 14 4 19 2 16 -6 -2 -7 -16 -14 -31 -16 -18 -2 -25 1 -21 8 4 7 2 8 -4 4
-9 -5 -9 -13 -2 -27 12 -21 1 -26 -18 -7 -6 6 -15 8 -19 4 -4 -4 -1 -11 7 -17
13 -8 13 -10 1 -18 -12 -8 -12 -12 -2 -25 8 -9 19 -16 25 -16 6 0 4 5 -4 10
-9 6 -10 10 -3 10 6 0 15 -5 18 -11 4 -6 14 -8 22 -5 8 3 12 2 10 -2 -3 -4 -1
-16 4 -27 6 -17 8 -17 8 -2 1 9 4 16 9 16 18 -3 26 2 14 10 -9 6 -5 8 15 8 75
1 133 7 133 14 0 5 -7 5 -17 2 -12 -5 -14 -3 -8 7 6 9 4 12 -6 8 -10 -4 -15 1
-15 12 0 12 6 16 16 13 9 -4 7 1 -5 10 -11 9 -29 17 -40 18 -17 1 -16 2 5 9
17 6 19 8 7 9 -10 1 -20 8 -23 16 -4 8 -10 12 -15 9 -6 -3 -16 0 -24 6 -8 7
-15 9 -15 4 0 -5 -7 0 -15 10 -13 17 -15 17 -15 4z m52 -70 c2 -15 7 -30 10
-34 9 -8 -2 -34 -14 -34 -5 0 -6 5 -3 10 3 6 0 10 -8 10 -8 0 -17 11 -19 25
-5 22 -3 23 16 13 17 -8 19 -8 9 2 -6 7 -9 19 -6 27 7 18 11 14 15 -19z"/>
<path d="M3590 1590 c-9 -6 -10 -10 -3 -10 6 0 15 5 18 10 8 12 4 12 -15 0z"/>
<path d="M3272 1738 c3 -7 17 -14 32 -15 23 -2 26 0 16 13 -15 17 -53 19 -48
2z"/>
<path d="M3361 1674 c0 -11 3 -14 6 -6 3 7 2 16 -1 19 -3 4 -6 -2 -5 -13z"/>
<path d="M2800 1639 c0 -5 5 -7 10 -4 6 3 10 8 10 11 0 2 -4 4 -10 4 -5 0 -10
-5 -10 -11z"/>
<path d="M3850 1620 c0 -11 7 -20 15 -20 8 0 15 6 15 14 0 8 -7 16 -15 20 -10
4 -15 -1 -15 -14z"/>
<path d="M3818 4058 c-19 -18 -54 -62 -78 -98 -52 -77 -107 -132 -149 -150
-17 -7 -31 -16 -31 -21 0 -16 74 21 109 54 18 18 48 55 66 82 18 28 50 68 71
91 22 22 31 31 22 19 -19 -23 -24 -45 -10 -45 5 0 29 19 53 41 40 38 42 42 24
50 -33 13 -41 10 -77 -23z"/>
<path d="M3941 4002 c-21 -41 -60 -81 -151 -154 -56 -45 -93 -99 -103 -153 -5
-25 -2 -22 16 15 37 74 55 96 116 138 68 48 139 124 147 159 10 40 -3 38 -25
-5z"/>
<path d="M1630 3985 c0 -5 5 -17 10 -25 5 -8 10 -10 10 -5 0 6 -5 17 -10 25
-5 8 -10 11 -10 5z"/>
<path d="M1620 3937 c0 -19 24 -103 32 -108 5 -3 13 -41 18 -85 13 -99 37
-226 39 -199 1 33 -38 267 -53 318 -15 47 -35 89 -36 74z"/>
<path d="M1671 3864 c0 -11 3 -14 6 -6 3 7 2 16 -1 19 -3 4 -6 -2 -5 -13z"/>
<path d="M1681 3824 c0 -11 3 -14 6 -6 3 7 2 16 -1 19 -3 4 -6 -2 -5 -13z"/>
<path d="M1692 3780 c0 -14 2 -19 5 -12 2 6 2 18 0 25 -3 6 -5 1 -5 -13z"/>
<path d="M1702 3720 c0 -14 2 -19 5 -12 2 6 2 18 0 25 -3 6 -5 1 -5 -13z"/>
<path d="M1751 3714 c0 -11 3 -14 6 -6 3 7 2 16 -1 19 -3 4 -6 -2 -5 -13z"/>
<path d="M1741 3674 c0 -11 3 -14 6 -6 3 7 2 16 -1 19 -3 4 -6 -2 -5 -13z"/>
<path d="M1712 3660 c0 -14 2 -19 5 -12 2 6 2 18 0 25 -3 6 -5 1 -5 -13z"/>
<path d="M1756 3629 c-4 -23 -5 -44 -2 -46 2 -2 7 14 11 37 4 23 5 43 2 46 -2
3 -7 -14 -11 -37z"/>
<path d="M1722 3600 c0 -14 2 -19 5 -12 2 6 2 18 0 25 -3 6 -5 1 -5 -13z"/>
<path d="M1732 3535 c0 -16 2 -22 5 -12 2 9 2 23 0 30 -3 6 -5 -1 -5 -18z"/>
<path d="M1742 3455 c0 -16 2 -22 5 -12 2 9 2 23 0 30 -3 6 -5 -1 -5 -18z"/>
<path d="M1752 3350 c0 -19 2 -27 5 -17 2 9 2 25 0 35 -3 9 -5 1 -5 -18z"/>
<path d="M958 2703 c-21 -5 -24 -23 -5 -23 17 0 85 -67 102 -100 8 -15 40 -48
72 -75 74 -62 106 -95 100 -102 -3 -3 -26 11 -50 31 -25 20 -76 52 -113 71
-100 49 -124 72 -131 124 -5 40 -7 42 -20 26 -17 -24 -16 -54 3 -85 8 -14 13
-17 10 -7 -4 11 12 2 43 -24 27 -24 56 -44 64 -45 65 -9 177 -104 177 -150 0
-29 12 -56 24 -55 42 6 55 -1 61 -30 5 -20 10 -27 15 -19 11 18 20 -12 21 -73
1 -29 4 -40 6 -26 4 25 6 24 66 -35 34 -34 135 -117 225 -184 89 -68 162 -126
162 -129 0 -3 -8 -2 -17 1 -10 4 -4 -5 12 -18 17 -14 36 -23 43 -21 11 4 66
-31 118 -74 7 -5 79 -59 160 -120 82 -61 178 -134 214 -162 36 -27 133 -99
215 -159 83 -60 156 -114 162 -120 9 -7 19 -8 32 0 11 5 26 8 33 6 7 -2 25 -7
41 -10 19 -5 27 -13 28 -29 0 -12 3 -17 5 -11 3 8 17 6 42 -6 43 -21 106 -36
82 -21 -12 9 -12 11 2 16 17 7 72 -36 186 -143 54 -51 100 -78 113 -65 5 5 -7
16 -29 26 -35 15 -109 83 -100 92 8 7 90 -40 118 -68 19 -19 30 -25 30 -16 0
24 -50 70 -99 92 -95 41 -190 120 -191 157 0 15 -3 20 -8 13 -10 -15 -60 28
-54 47 3 9 -1 11 -11 7 -22 -8 -46 32 -40 66 3 16 1 27 -6 27 -6 0 -11 -4 -11
-10 0 -19 -27 -10 -71 23 -24 18 -82 60 -129 92 -98 67 -369 276 -547 421
-281 229 -443 358 -484 386 -24 16 -43 34 -41 39 1 5 -2 8 -8 7 -5 -2 -34 15
-64 37 -52 37 -55 40 -39 57 23 25 -2 24 -34 -2 -25 -19 -27 -19 -45 -3 -10 9
-16 23 -14 30 7 18 -12 27 -29 13 -12 -10 -19 -6 -39 17 -13 15 -20 30 -15 31
5 2 9 8 9 13 0 13 -34 11 -47 -2 -17 -17 -144 98 -182 165 -30 53 -74 97 -95
95 -6 -1 -19 -3 -28 -6z m42 -13 c20 -11 84 -100 77 -107 -3 -2 -14 12 -26 31
-12 19 -36 47 -52 61 -32 26 -31 32 1 15z m311 -307 l24 -27 -35 24 c-19 13
-37 25 -39 27 -2 2 2 3 11 3 8 0 25 -12 39 -27z m-17 -22 c22 -24 13 -61 -14
-61 -21 0 -40 28 -40 59 0 27 31 28 54 2z m91 -31 c10 -11 14 -20 8 -20 -5 0
-18 9 -28 20 -10 11 -14 20 -8 20 5 0 18 -9 28 -20z m-21 -29 c15 -16 15 -22
4 -40 -16 -27 -22 -26 -42 3 -29 45 3 76 38 37z m101 -39 c17 -15 118 -97 225
-181 107 -85 201 -161 208 -169 6 -9 12 -13 12 -9 0 4 10 -2 23 -13 12 -12 84
-70 160 -128 172 -133 200 -155 481 -374 125 -98 223 -178 218 -178 -8 0 -130
93 -591 453 -229 178 -492 384 -546 427 -27 22 -92 72 -142 111 -83 63 -108
89 -85 89 4 0 21 -13 37 -28z m152 -84 c169 -129 157 -119 243 -190 36 -30 95
-77 133 -107 37 -29 67 -55 67 -58 0 -5 -23 12 -220 167 -74 58 -187 146 -250
195 -131 100 -136 105 -128 105 4 0 73 -51 155 -112z m-117 12 c38 -30 109
-87 180 -143 9 -7 33 -25 55 -41 22 -17 42 -33 45 -36 3 -3 41 -34 85 -67 195
-149 230 -177 235 -183 3 -4 55 -44 116 -91 106 -81 444 -343 512 -397 18 -15
38 -30 44 -33 15 -10 0 -29 -23 -29 -29 0 -106 42 -177 97 -121 94 -229 175
-382 290 -85 63 -171 128 -190 143 -222 177 -383 299 -496 373 -38 25 -86 63
-106 84 l-38 38 21 34 c20 33 20 33 47 15 15 -9 47 -34 72 -54z m100 -210
c106 -80 239 -181 292 -222 64 -49 99 -82 62 -57 -30 20 -412 310 -438 332
-25 22 33 -15 84 -53z m506 -192 l29 -33 -32 29 c-31 28 -38 36 -30 36 2 0 16
-15 33 -32z m-286 -13 c7 -8 8 -15 2 -15 -5 0 -15 7 -22 15 -7 8 -8 15 -2 15
5 0 15 -7 22 -15z m185 -105 c10 -11 16 -20 13 -20 -3 0 -13 9 -23 20 -10 11
-16 20 -13 20 3 0 13 -9 23 -20z m405 -127 c0 -2 -18 10 -40 27 -22 17 -40 34
-40 37 0 2 18 -10 40 -27 22 -17 40 -34 40 -37z m-240 1 c0 -3 -13 4 -30 16
-16 12 -30 24 -30 26 0 3 14 -4 30 -16 17 -12 30 -24 30 -26z m35 -24 c10 -11
16 -20 13 -20 -3 0 -13 9 -23 20 -10 11 -16 20 -13 20 3 0 13 -9 23 -20z m295
-47 c0 -2 -18 10 -40 27 -22 17 -40 34 -40 37 0 2 18 -10 40 -27 22 -17 40
-34 40 -37z m130 -91 c91 -68 201 -163 170 -146 -22 12 -290 225 -290 231 0 3
6 1 13 -4 6 -5 55 -42 107 -81z m-282 33 c23 -16 42 -34 42 -39 0 -7 -74 47
-105 77 -15 15 16 -4 63 -38z m127 -100 c39 -35 39 -35 -17 6 -57 41 -75 59
-40 40 9 -5 35 -26 57 -46z m389 -120 c27 -20 16 -39 -12 -20 -21 16 -30 35
-14 35 4 0 15 -7 26 -15z m-137 -48 c3 -4 0 -7 -7 -7 -12 0 -80 38 -80 45 0 5
78 -30 87 -38z m133 -7 c0 -11 -33 -13 -68 -4 -21 6 -22 8 -6 25 15 17 19 17
45 3 16 -8 29 -19 29 -24z m85 -10 c8 -13 -1 -13 -26 0 -10 6 -19 15 -19 21 0
11 35 -5 45 -21z m-12 -27 c30 -16 -1 -32 -40 -21 -34 9 -42 25 -21 46 9 9 15
9 27 -2 9 -7 24 -18 34 -23z"/>
<path d="M3802 2113 c-10 -4 -7 -10 9 -21 16 -11 24 -12 27 -4 2 6 11 8 20 5
13 -4 12 -2 -3 10 -21 17 -31 19 -53 10z m35 -9 c-3 -3 -12 -4 -19 -1 -8 3 -5
6 6 6 11 1 17 -2 13 -5z"/>
<path d="M1430 2046 c0 -3 9 -10 20 -16 11 -6 20 -8 20 -6 0 3 -9 10 -20 16
-11 6 -20 8 -20 6z"/>
<path d="M3975 2011 c-4 -7 -9 -31 -10 -52 l-3 -39 34 4 c30 4 37 1 46 -20 6
-13 15 -24 20 -24 8 0 -27 66 -63 120 -12 18 -18 20 -24 11z m45 -57 c0 -8
-19 -13 -24 -6 -3 5 1 9 9 9 8 0 15 -2 15 -3z"/>
<path d="M3905 1940 c3 -5 8 -10 11 -10 2 0 4 5 4 10 0 6 -5 10 -11 10 -5 0
-7 -4 -4 -10z"/>
<path d="M1700 1846 c0 -2 8 -10 18 -17 15 -13 16 -12 3 4 -13 16 -21 21 -21
13z"/>
<path d="M1945 1654 c6 -5 23 -20 40 -34 29 -24 29 -24 10 -2 -11 13 -29 28
-40 34 -11 6 -15 6 -10 2z"/>
<path d="M2060 1566 c0 -2 14 -14 30 -26 17 -12 30 -19 30 -16 0 2 -13 14 -30
26 -16 12 -30 19 -30 16z"/>
<path d="M2140 1506 c0 -2 8 -10 18 -17 15 -13 16 -12 3 4 -13 16 -21 21 -21
13z"/>
<path d="M2285 1394 c6 -5 23 -20 40 -34 29 -24 29 -24 10 -2 -11 13 -29 28
-40 34 -11 6 -15 6 -10 2z"/>
<path d="M2507 1219 c7 -7 15 -10 18 -7 3 3 -2 9 -12 12 -14 6 -15 5 -6 -5z"/>
<path d="M2555 1180 c10 -11 20 -20 23 -20 3 0 -3 9 -13 20 -10 11 -20 20 -23
20 -3 0 3 -9 13 -20z"/>
<path d="M2590 1157 c0 -3 12 -12 26 -22 15 -9 23 -12 20 -6 -7 11 -46 35 -46
28z"/>
<path d="M3034 965 c65 -89 80 -105 115 -120 37 -16 85 -20 77 -6 -3 4 -19 11
-35 14 -18 4 -54 30 -89 64 -94 93 -109 104 -68 48z"/>
</g>
</svg>
