<?xml version="1.0" standalone="no"?>
<!DOCTYPE svg PUBLIC "-//W3C//DTD SVG 20010904//EN"
 "http://www.w3.org/TR/2001/REC-SVG-20010904/DTD/svg10.dtd">
<svg version="1.0" xmlns="http://www.w3.org/2000/svg"
 width="500.000000pt" height="500.000000pt" viewBox="0 0 500.000000 500.000000"
 preserveAspectRatio="xMidYMid meet">

<g transform="translate(0.000000,500.000000) scale(0.100000,-0.100000)"
fill="#000000" stroke="none">
<path d="M2080 4476 c-5 -13 -14 -27 -19 -31 -7 -4 -11 -56 -11 -140 0 -140
-2 -130 81 -475 17 -69 38 -136 48 -150 10 -14 21 -35 25 -47 6 -18 2 -22 -30
-27 -45 -9 -112 -69 -146 -133 -36 -66 -43 -125 -23 -193 20 -68 21 -77 4
-117 -10 -26 -11 -35 -1 -45 9 -9 13 -5 18 20 4 18 11 35 16 38 5 3 29 -13 53
-35 44 -41 67 -49 94 -32 11 7 2 21 -41 62 -96 95 -113 193 -50 294 36 59 92
95 146 95 29 0 46 8 79 40 40 38 35 57 -7 25 -27 -21 -35 -19 -48 11 -8 17
-18 24 -30 21 -10 -3 -21 -1 -24 4 -3 5 2 9 10 9 32 0 26 24 -24 100 -45 69
-79 149 -97 230 -12 54 -14 288 -3 341 6 30 13 69 15 87 2 18 6 36 9 39 7 7
-13 33 -25 33 -5 0 -14 -11 -19 -24z"/>
<path d="M2984 4055 c-10 -15 -14 -35 -10 -52 3 -15 2 -35 -4 -43 -8 -13 -10
-13 -10 0 0 25 -26 -20 -45 -80 -9 -30 -23 -68 -30 -85 -16 -37 -35 -95 -35
-106 0 -5 4 -9 8 -9 8 0 24 34 53 108 10 26 29 29 29 4 0 -27 57 -112 75 -112
21 0 19 9 -21 94 -28 60 -35 85 -32 114 7 45 46 132 60 132 6 0 28 -16 49 -35
22 -19 47 -35 57 -35 10 0 23 -5 30 -12 9 -9 12 -8 16 3 19 53 -7 91 -80 119
-71 26 -90 25 -110 -5z m141 -55 c3 -5 1 -10 -4 -10 -6 0 -11 5 -11 10 0 6 2
10 4 10 3 0 8 -4 11 -10z"/>
<path d="M3132 3857 c-6 -18 -12 -40 -11 -48 0 -8 7 4 15 25 8 22 13 44 11 49
-1 4 -8 -7 -15 -26z"/>
<path d="M3278 3768 c-37 -51 -51 -85 -44 -105 7 -16 12 -13 39 20 32 37 47
46 47 27 0 -26 86 -114 105 -107 33 13 16 58 -47 126 -34 36 -65 67 -69 69 -4
2 -18 -12 -31 -30z"/>
<path d="M2452 3681 c-17 -11 3 -19 73 -31 54 -9 105 -30 145 -58 23 -16 24
-16 17 1 -11 30 0 19 37 -37 33 -50 53 -103 23 -63 -10 15 -12 4 -12 -68 l0
-85 19 42 c10 24 19 61 20 83 1 22 5 46 9 53 10 15 -24 74 -60 102 -14 11 -36
20 -50 20 -13 0 -26 6 -29 14 -3 8 -19 19 -36 25 -37 13 -137 14 -156 2z"/>
<path d="M3064 3668 c-6 -7 -16 -31 -23 -53 -22 -67 -50 -105 -77 -105 -27 0
-33 -17 -9 -26 20 -8 19 -19 -6 -80 -20 -48 -21 -84 -2 -84 13 0 73 165 73
198 0 17 6 35 14 39 8 4 21 32 30 62 16 56 16 71 0 49z"/>
<path d="M3215 3640 c3 -5 11 -10 16 -10 6 0 7 5 4 10 -3 6 -11 10 -16 10 -6
0 -7 -4 -4 -10z"/>
<path d="M2880 3614 c0 -42 19 -94 35 -94 15 0 27 38 14 46 -5 3 -18 22 -29
42 l-19 37 -1 -31z"/>
<path d="M3166 3589 c-21 -35 -15 -69 9 -49 8 6 13 17 12 23 -1 7 5 12 13 12
10 0 17 -15 22 -49 4 -27 12 -54 17 -59 6 -6 11 -17 11 -25 0 -19 -82 -122
-97 -122 -32 0 -57 106 -35 147 18 32 15 38 -8 18 -11 -10 -20 -22 -20 -28 0
-5 -9 -22 -21 -38 -15 -22 -17 -27 -5 -23 13 5 16 -2 16 -32 0 -22 9 -54 20
-72 20 -33 20 -34 1 -60 -30 -42 -59 -65 -75 -59 -9 4 -29 28 -46 54 -16 26
-30 43 -30 37 0 -29 33 -115 48 -124 15 -9 13 -13 -17 -41 -28 -26 -39 -30
-69 -26 -45 8 -46 10 -33 47 9 27 8 31 -4 27 -7 -3 -16 -1 -18 6 -2 7 -4 0 -4
-15 0 -14 -12 -39 -27 -54 -35 -38 -33 -44 12 -44 42 0 116 -31 150 -62 27
-26 29 -76 5 -134 -12 -29 -23 -42 -38 -42 -11 0 -54 -7 -95 -15 -41 -8 -104
-18 -140 -22 -89 -9 -113 -26 -107 -73 3 -21 8 -49 12 -63 16 -60 -87 -84
-142 -33 -24 22 -29 23 -31 9 -5 -24 26 -54 63 -61 40 -7 117 27 135 61 8 14
10 37 6 59 -12 61 3 74 91 80 43 2 89 7 103 9 14 2 49 7 78 11 52 8 75 26 65
54 -6 16 12 16 29 -1 7 -7 40 -14 73 -16 80 -3 94 -8 132 -44 57 -54 56 -121
-2 -186 -31 -34 -33 -40 -21 -56 13 -19 15 -19 54 -1 40 18 42 18 74 -1 46
-27 78 -86 78 -146 0 -61 -22 -109 -69 -147 -40 -34 -25 -41 19 -10 l29 21 11
-22 c17 -31 15 -131 -3 -165 -14 -27 -66 -84 -131 -143 -24 -22 -28 -23 -52
-11 -15 9 -28 10 -32 5 -4 -6 -13 -10 -21 -10 -8 0 -17 -7 -19 -15 -5 -13 -3
-13 11 -1 43 35 24 -62 -47 -233 -20 -48 -72 -158 -116 -246 -44 -87 -74 -157
-67 -154 19 7 108 148 159 249 25 50 65 148 89 218 36 103 47 127 61 123 9 -2
26 3 38 11 12 8 24 13 27 10 6 -7 -64 -204 -114 -321 -19 -45 -64 -136 -100
-204 -35 -68 -63 -126 -60 -128 9 -9 88 90 136 171 106 174 212 416 227 516 4
24 18 58 32 74 66 80 81 186 37 269 -23 44 -24 49 -10 76 17 33 19 108 5 162
-11 38 -72 101 -110 113 -20 6 -21 11 -15 55 4 26 2 66 -4 88 -20 72 -112 132
-203 132 -35 0 -35 1 -36 43 -1 57 -13 86 -50 121 l-31 29 27 36 c15 20 43 55
63 78 20 24 72 96 115 160 43 65 82 120 87 121 4 2 7 9 7 15 0 7 9 23 21 37
51 65 58 82 13 36 l-48 -49 -28 32 c-17 19 -28 43 -28 61 0 17 -5 30 -11 30
-5 0 -7 5 -4 10 3 6 -2 10 -12 10 -10 0 -27 -14 -37 -31z"/>
<path d="M2793 3438 c-6 -7 -17 -32 -25 -56 -8 -24 -22 -52 -32 -63 -9 -11
-14 -24 -11 -29 3 -4 -1 -10 -7 -13 -7 -2 -10 -7 -7 -11 8 -9 67 52 75 77 6
19 34 24 34 6 0 -7 16 -26 35 -44 l35 -33 -15 -48 c-9 -32 -11 -52 -5 -58 6
-6 10 -6 11 -1 4 44 8 57 23 74 14 16 15 23 4 47 -13 31 -53 74 -68 74 -5 0
-15 21 -23 46 -10 35 -16 43 -24 32z"/>
<path d="M2665 3254 c-11 -9 -37 -23 -58 -31 -34 -14 -37 -17 -23 -31 12 -13
20 -13 48 -2 35 14 67 46 68 68 0 16 -11 15 -35 -4z"/>
<path d="M2706 3221 c-7 -10 43 -25 52 -16 7 7 -18 25 -35 25 -6 0 -14 -4 -17
-9z"/>
<path d="M2436 3139 c-100 -50 -123 -58 -154 -53 -31 5 -42 1 -66 -21 -25 -23
-36 -26 -85 -24 -31 1 -61 6 -68 11 -9 7 -11 2 -9 -19 2 -15 -2 -31 -8 -35
-18 -12 15 -9 66 6 31 10 82 13 155 12 59 -2 97 -1 83 1 -30 6 -52 23 -29 23
19 0 191 83 231 111 15 11 28 24 28 29 0 23 -38 13 -144 -41z"/>
<path d="M2776 3149 c-23 -81 -24 -89 -10 -89 8 0 11 6 8 15 -4 8 -2 15 3 15
6 0 15 11 21 24 8 19 8 27 -3 36 -12 10 -16 9 -19 -1z"/>
<path d="M2017 3080 c3 -11 9 -20 15 -20 5 0 4 9 -2 20 -6 11 -12 20 -14 20
-2 0 -2 -9 1 -20z"/>
<path d="M2570 3014 c-63 -7 -140 -19 -170 -28 l-55 -15 90 0 c94 0 186 15
245 42 41 18 40 18 -110 1z"/>
<path d="M1990 2980 c0 -16 -7 -20 -36 -20 -22 0 -33 4 -29 11 5 7 1 7 -11 1
-11 -6 -38 -18 -62 -28 -55 -22 -116 -83 -144 -143 -17 -35 -22 -67 -23 -134
-1 -48 -5 -90 -8 -94 -13 -12 -7 -19 18 -21 14 -1 42 -13 63 -27 55 -38 102
-31 102 15 0 4 -21 13 -46 19 -38 10 -48 17 -60 46 -56 135 64 282 277 339 30
8 48 15 40 15 -11 1 -10 5 5 16 18 13 17 14 -11 6 -16 -5 -38 -12 -47 -16 -11
-4 -18 -3 -18 4 0 6 5 11 10 11 6 0 10 5 10 10 0 6 -7 10 -15 10 -8 0 -15 -9
-15 -20z"/>
<path d="M2138 2963 c17 -2 47 -2 65 0 17 2 3 4 -33 4 -36 0 -50 -2 -32 -4z"/>
<path d="M2931 2685 c6 -16 15 -39 19 -50 17 -42 19 -72 6 -90 -11 -15 -16
-16 -36 -5 -21 11 -22 17 -17 68 7 63 -4 92 -34 92 -16 0 -19 -4 -14 -17 5
-10 7 -45 6 -78 -1 -69 14 -97 53 -97 37 0 76 28 76 55 0 41 -21 97 -46 124
l-24 28 11 -30z"/>
<path d="M2259 2681 c-13 -11 -21 -23 -17 -27 4 -4 15 -1 23 6 22 19 99 17
129 -3 32 -21 37 -21 29 1 -10 30 -35 42 -89 42 -36 0 -59 -6 -75 -19z"/>
<path d="M2199 2613 c-23 -47 -23 -49 5 -24 14 14 26 30 26 38 0 22 -16 15
-31 -14z"/>
<path d="M2085 2577 c-16 -13 -15 -14 13 -9 18 2 32 8 32 13 0 13 -24 11 -45
-4z"/>
<path d="M1874 2545 c-11 -27 4 -45 36 -45 25 0 30 4 30 24 0 16 -7 26 -22 30
-33 9 -38 8 -44 -9z"/>
<path d="M1655 2530 c-4 -6 -10 -8 -15 -5 -5 3 -11 2 -14 -3 -7 -12 26 -12 41
0 7 5 22 7 34 3 14 -5 19 -4 15 4 -9 14 -53 14 -61 1z"/>
<path d="M2060 2530 c0 -5 -9 -18 -21 -29 -18 -17 -23 -17 -47 -5 -29 15 -55
3 -35 -17 19 -19 79 -22 97 -4 14 15 23 65 11 65 -3 0 -5 -4 -5 -10z"/>
<path d="M2144 2515 c-4 -18 -2 -32 8 -41 13 -13 15 -12 14 8 -1 17 5 24 23
26 20 3 23 1 18 -19 -6 -21 -5 -21 11 -5 23 23 5 50 -36 54 -27 3 -32 -1 -38
-23z"/>
<path d="M1667 2508 c-7 -4 -26 -8 -44 -8 -25 0 -36 -7 -53 -35 -41 -66 -2
-99 56 -48 51 46 74 63 82 63 4 0 12 8 18 18 10 15 7 17 -18 17 -17 0 -35 -3
-41 -7z"/>
<path d="M3115 2505 c-5 -2 -50 -15 -100 -30 -49 -15 -122 -38 -162 -51 -39
-14 -113 -31 -165 -39 l-93 -15 135 5 c74 3 167 11 205 19 91 19 232 64 241
77 11 19 -33 43 -61 34z"/>
<path d="M1910 2400 c-10 -6 -2 -7 25 -3 49 7 58 13 19 13 -16 0 -36 -5 -44
-10z"/>
<path d="M1858 2393 c6 -2 18 -2 25 0 6 3 1 5 -13 5 -14 0 -19 -2 -12 -5z"/>
<path d="M1750 2368 c-41 -5 -97 -10 -125 -12 -43 -2 -50 -6 -50 -24 0 -11
-10 -31 -22 -44 -47 -50 -60 -161 -23 -198 11 -11 25 -20 31 -20 7 0 9 -9 6
-21 -4 -16 -3 -19 5 -11 6 6 8 28 4 54 -19 124 -19 126 5 168 37 66 55 72 274
100 34 4 46 8 28 8 -17 1 -37 4 -45 6 -7 2 -47 -1 -88 -6z"/>
<path d="M3020 2113 c-52 -7 -158 -27 -234 -44 -77 -16 -168 -33 -202 -36
-111 -10 -61 -18 68 -11 139 7 340 45 438 82 73 28 65 29 -70 9z"/>
<path d="M2257 2083 c18 -2 50 -2 70 0 21 2 7 4 -32 4 -38 0 -55 -2 -38 -4z"/>
<path d="M1694 2051 c11 -4 20 -15 22 -24 2 -14 -7 -17 -49 -18 -67 -1 -101
-11 -104 -29 -4 -22 11 -41 33 -42 19 -2 32 -38 14 -38 -5 0 -6 -8 -3 -17 6
-17 6 -17 -11 0 -10 10 -20 16 -23 13 -8 -8 17 -113 32 -132 14 -18 14 -18 15
1 l1 20 9 -20 c5 -11 9 -27 9 -35 1 -13 0 -13 -9 0 -15 23 -12 6 6 -28 20 -40
25 -40 17 0 -4 22 -3 29 6 24 6 -4 9 -12 5 -17 -3 -5 -1 -15 4 -22 5 -7 12
-29 16 -50 19 -103 161 -417 229 -503 44 -57 83 -74 170 -75 65 -1 68 -2 32
-9 -22 -5 -49 -7 -60 -4 -17 4 -17 3 -4 -5 9 -6 36 -13 60 -16 32 -4 38 -3 24
4 -18 9 -18 10 -2 10 10 1 25 8 33 16 18 18 20 17 -83 39 -73 15 -161 53 -180
78 -5 7 -22 54 -37 103 -62 207 -87 276 -137 380 -30 61 -60 127 -68 148 -8
20 -21 37 -28 37 -8 0 -11 9 -9 23 3 12 5 28 5 35 1 20 23 14 53 -15 28 -27
29 -27 61 -10 30 16 62 15 77 -2 5 -6 56 -42 76 -54 6 -3 22 0 37 8 31 16 40
7 31 -30 -4 -15 -2 -43 4 -63 6 -21 14 -63 17 -95 4 -36 10 -55 17 -51 6 4 14
0 19 -7 7 -11 9 -10 9 4 0 9 -4 17 -10 17 -5 0 -10 19 -10 43 0 26 -3 37 -9
29 -5 -8 -9 16 -9 59 -1 45 -7 81 -16 95 -14 20 -13 23 7 37 12 8 19 18 15 22
-6 6 -43 -11 -79 -37 -13 -9 -23 -5 -53 18 -20 16 -39 39 -42 51 -8 31 -40 38
-85 18 -37 -17 -38 -17 -68 6 -48 38 -40 49 37 49 37 0 74 5 82 10 11 7 8 10
-16 10 -26 0 -33 5 -38 25 -5 19 -13 25 -34 24 -22 0 -24 -2 -8 -8z m-52 -245
c18 -26 6 -33 -17 -10 -14 14 -25 27 -25 29 0 8 35 -8 42 -19z"/>
<path d="M1595 2040 c4 -6 11 -8 16 -5 14 9 11 15 -7 15 -8 0 -12 -5 -9 -10z"/>
<path d="M1635 2039 c-10 -16 3 -23 18 -11 8 7 18 8 22 4 5 -4 5 -1 1 6 -9 15
-32 16 -41 1z"/>
<path d="M2388 2013 c17 -2 47 -2 65 0 17 2 3 4 -33 4 -36 0 -50 -2 -32 -4z"/>
<path d="M2660 1860 c-34 -30 -42 -42 -33 -51 9 -9 17 -8 35 3 13 8 40 20 61
27 38 13 46 28 25 49 -20 20 -41 13 -88 -28z"/>
<path d="M2175 1862 c-43 -15 -57 -29 -51 -50 6 -19 10 -20 34 -9 36 15 82 53
75 61 -8 7 -31 6 -58 -2z"/>
<path d="M3085 1840 c-18 -12 -38 -17 -52 -14 -14 4 -23 2 -23 -5 0 -16 40
-53 53 -48 9 3 63 87 55 87 -2 0 -16 -9 -33 -20z"/>
<path d="M2765 1830 c3 -5 8 -10 11 -10 2 0 4 5 4 10 0 6 -5 10 -11 10 -5 0
-7 -4 -4 -10z"/>
<path d="M1820 1811 c0 -11 4 -22 9 -25 4 -3 7 -35 5 -70 -4 -76 24 -173 86
-303 22 -44 40 -86 40 -92 0 -6 5 -11 10 -11 13 0 14 -7 -14 80 -13 41 -31
111 -41 155 -16 74 -27 117 -59 234 -13 47 -36 68 -36 32z"/>
<path d="M2920 1805 c-8 -9 -15 -35 -16 -58 -1 -23 -11 -68 -22 -100 -11 -31
-16 -60 -12 -62 7 -5 20 16 25 41 2 6 10 27 18 45 8 19 21 51 27 72 6 20 16
35 21 31 5 -3 7 5 6 18 -5 28 -29 35 -47 13z"/>
<path d="M2550 1792 c0 -18 33 -45 43 -35 8 7 -22 53 -34 53 -5 0 -9 -8 -9
-18z"/>
<path d="M2790 1800 c0 -18 23 -60 34 -60 6 0 25 9 41 20 l30 20 -31 0 c-17 0
-37 7 -44 15 -14 17 -30 20 -30 5z"/>
<path d="M2446 1778 c-4 -13 -9 -85 -13 -160 -4 -101 -3 -138 5 -138 7 0 12
17 12 41 0 36 2 40 20 34 17 -5 20 -2 20 22 0 22 -2 25 -10 13 -7 -11 -9 -4
-9 25 1 36 2 37 10 15 6 -19 7 -14 3 17 -3 23 -1 51 6 62 6 12 7 21 1 21 -5 0
-9 6 -8 13 1 37 -5 57 -17 57 -7 0 -17 -10 -20 -22z"/>
<path d="M2317 1783 c-12 -12 -7 -22 18 -39 20 -13 28 -14 40 -4 14 11 12 15
-15 31 -35 21 -34 21 -43 12z"/>
<path d="M2195 1756 c-16 -24 -16 -37 -6 -138 7 -62 17 -118 22 -125 6 -7 9
-16 6 -20 -2 -4 1 -20 7 -34 9 -21 11 11 10 148 -1 185 -8 217 -39 169z"/>
<path d="M2689 1768 c-12 -9 -18 -36 -22 -87 -7 -87 3 -83 27 11 20 76 19 95
-5 76z"/>
<path d="M2970 1750 c0 -5 5 -10 10 -10 6 0 10 5 10 10 0 6 -4 10 -10 10 -5 0
-10 -4 -10 -10z"/>
<path d="M2953 1663 c-3 -10 -8 -22 -11 -27 -3 -5 0 -6 5 -3 11 7 25 47 17 47
-3 0 -7 -8 -11 -17z"/>
<path d="M2927 1601 c-4 -17 -3 -21 5 -13 5 5 8 16 6 23 -3 8 -7 3 -11 -10z"/>
<path d="M2000 1536 c0 -9 5 -16 10 -16 6 0 10 4 10 9 0 6 -4 13 -10 16 -5 3
-10 -1 -10 -9z"/>
<path d="M2016 1492 c-3 -6 -1 -14 5 -17 14 -9 20 -2 10 14 -6 8 -11 9 -15 3z"/>
<path d="M2810 1358 c-12 -29 -35 -80 -50 -113 -16 -33 -27 -62 -24 -64 5 -5
4 -8 38 64 56 117 76 165 67 165 -5 0 -19 -24 -31 -52z"/>
<path d="M2446 1363 c-9 -55 -7 -99 3 -87 12 13 23 124 12 124 -4 0 -11 -17
-15 -37z"/>
<path d="M2615 1320 c-3 -5 -1 -10 4 -10 6 0 11 5 11 10 0 6 -2 10 -4 10 -3 0
-8 -4 -11 -10z"/>
<path d="M2600 1274 c0 -8 5 -12 10 -9 6 3 10 10 10 16 0 5 -4 9 -10 9 -5 0
-10 -7 -10 -16z"/>
<path d="M2590 1239 c0 -5 5 -7 10 -4 6 3 10 8 10 11 0 2 -4 4 -10 4 -5 0 -10
-5 -10 -11z"/>
<path d="M2998 1160 c-44 -34 -129 -69 -208 -84 -41 -8 -101 -24 -133 -36 -32
-11 -94 -24 -138 -27 -44 -3 -82 -10 -85 -15 -7 -11 104 -10 180 2 33 5 97 14
141 20 91 12 202 60 249 109 36 37 31 61 -6 31z"/>
<path d="M2171 1040 c-8 -4 -11 -12 -7 -18 6 -11 76 -22 76 -12 0 13 -57 38
-69 30z"/>
</g>
</svg>
