<?xml version="1.0" encoding="utf-8"?>
<!-- Svg Vector Icons : http://www.onlinewebfonts.com/icon -->
<!DOCTYPE svg PUBLIC "-//W3C//DTD SVG 1.1//EN" "http://www.w3.org/Graphics/SVG/1.1/DTD/svg11.dtd">
<svg version="1.1" xmlns="http://www.w3.org/2000/svg" xmlns:xlink="http://www.w3.org/1999/xlink" x="0px" y="0px" viewBox="0 0 1000 1000" enable-background="new 0 0 1000 1000" xml:space="preserve">
<metadata> Svg Vector Icons : http://www.onlinewebfonts.com/icon </metadata>
<g><g transform="translate(0.000000,511.000000) scale(0.100000,-0.100000)"><path d="M978.1,4940.6c-69.4-82.4-62.9-175.6,23.9-249.3c47.7-45.5,78.1-49.9,271-49.9h214.6l-4.3-4524.9l-6.5-4527.1l-221.2-6.5c-216.8-6.5-221.1-6.5-277.5-73.7c-69.4-82.4-60.7-175.6,23.9-249.3l54.2-49.9H5000h3943.9l54.2,49.9c86.7,73.7,93.2,167,23.8,249.3l-58.5,69.4h-225.5h-225.5V110v4531.4H8727c192.9,0,223.3,4.3,271,49.9c86.7,73.7,93.2,166.9,23.8,249.3l-58.5,69.4H5000H1036.6L978.1,4940.6z M8143.8,4413.8v-227.7H5000H1856.2v227.7v227.7H5000h3143.8V4413.8z M8143.8,2490.6l-2.2-1329.1l-58.6,67.2c-32.5,36.9-409.8,470.5-839.1,960.5l-780.5,891.1H5000H3536.5L2756,2189.2c-429.3-490-806.6-923.6-839.1-960.5l-58.5-67.2l-2.2,1329.1v1326.9H5000h3143.8V2490.6z M7226.7,1645l917.1-1047.2V246.6v-353.4L6576.2-2196.9C5715.5-3348.2,5006.5-4289.2,5000-4289.2c-6.5,0-715.5,941-1576.2,2090.1L1856.2-106.8v351.2v353.4L2773.3,1645l915,1045H5000h1311.7L7226.7,1645z M3252.5-2580.7c745.8-997.3,1357.3-1819.1,1357.3-1825.6c0-8.7-620.1-15.2-1376.8-15.2H1856.2v1847.3c0,1034.2,8.7,1838.6,19.5,1827.7C1884.4-759.4,2504.5-1583.3,3252.5-2580.7z M8143.8-2578.5v-1842.9H6767c-756.7,0-1376.8,6.5-1376.8,15.2c0,13,2738.4,3670.7,2747,3670.7C8141.6-735.6,8143.8-1563.8,8143.8-2578.5z"/><path d="M4160.9,105.7C4041.7,8.1,4028.7-11.4,4054.7-39.6c15.2-19.5,232-277.5,479.2-576.7c247.2-297,457.5-542,466.2-542c8.7,0,219,245,466.2,542c247.2,299.2,464,557.2,481.3,576.7c23.8,30.4,8.7,47.7-114.9,149.6c-140.9,114.9-145.3,117.1-180,73.7c-249.3-307.9-641.8-767.5-652.6-767.5c-8.7,0-164.8,180-349.1,401.1c-182.1,221.2-338.2,401.1-344.7,401.1C4299.7,218.4,4234.6,166.4,4160.9,105.7z"/></g></g>
</svg>