<?xml version="1.0" encoding="utf-8"?>
<!-- Svg Vector Icons : http://www.onlinewebfonts.com/icon -->
<!DOCTYPE svg PUBLIC "-//W3C//DTD SVG 1.1//EN" "http://www.w3.org/Graphics/SVG/1.1/DTD/svg11.dtd">
<svg version="1.1" xmlns="http://www.w3.org/2000/svg" xmlns:xlink="http://www.w3.org/1999/xlink" x="0px" y="0px" viewBox="0 0 1000 1000" enable-background="new 0 0 1000 1000" xml:space="preserve">
<metadata> Svg Vector Icons : http://www.onlinewebfonts.com/icon </metadata>
<g><path d="M295.8,10C134.7,10,10,236.6,10,431.7c0,162.4,95.9,266.1,205.4,300.5c-0.9-9.4-1.3-18.6-1.3-28.1c0-158.5,123.9-326.7,354.1-326.7c3.5,0,7.4-0.1,10.8,0C559,197,442.2,10,295.8,10z M568.3,418.3C364.6,418.3,255,565.5,255,704.2C255,842.9,364.6,990,568.3,990C763.4,990,990,865.3,990,704.2C990,543,763.4,418.3,568.3,418.3z"/></g>
</svg>