<?xml version="1.0" encoding="utf-8"?>
<!-- Svg Vector Icons : http://www.onlinewebfonts.com/icon -->
<!DOCTYPE svg PUBLIC "-//W3C//DTD SVG 1.1//EN" "http://www.w3.org/Graphics/SVG/1.1/DTD/svg11.dtd">
<svg version="1.1" xmlns="http://www.w3.org/2000/svg" xmlns:xlink="http://www.w3.org/1999/xlink" x="0px" y="0px" viewBox="0 0 1000 1000" enable-background="new 0 0 1000 1000" xml:space="preserve">
<metadata> Svg Vector Icons : http://www.onlinewebfonts.com/icon </metadata>
<g><g transform="translate(0.000000,511.000000) scale(0.100000,-0.100000)"><path d="M4317.6,5006.2c-647.4-48.6-908.5-74.2-1310.2-128c-342.9-46.1-580.9-61.4-913.6-61.4h-447.8l-10.2-593.7c-7.7-550.2-15.4-629.5-92.1-1005.7C1323.5,2127.2,1249.3,1339,1246.7,120.9c0-1243.7,66.5-1950,294.3-3058.1c97.2-476,102.4-519.5,102.4-977.6v-481.1h493.9c468.3,0,504.1-2.6,760-76.8c795.9-227.8,1392.1-317.3,2136.8-317.3c760-2.5,1277,74.2,2021.7,299.4L7414-4383l468.3-7.7l465.8-10.2v440.2c0,391.5,10.2,486.2,87,903.3c202.1,1067.1,294.3,1944.9,314.8,3012c25.6,1297.4-92.1,2541.1-350.6,3697.8c-38.4,184.3-51.2,325-51.2,698.6v465.8h-509.3c-373.6,0-593.7,12.8-836.8,51.2c-639.8,97.2-1069.7,130.5-1814.4,138.2C4780.8,5011.3,4389.2,5011.3,4317.6,5006.2z M6224.1,4548.1c217.5-23,573.2-69.1,788.2-102.4c238-38.4,496.5-64,657.7-64h268.7v-307.1v-307.1H5008.5H2078.4v307.1v307.1h194.5c104.9,0,337.8,23,516.9,51.2c429.9,64,980.1,122.8,1438.2,153.5C4719.4,4617.2,5727.6,4596.7,6224.1,4548.1z M8064.1,3225c97.2-488.8,181.7-1095.3,238-1722.2c43.5-460.6,40.9-1980.7,0-2469.5c-56.3-637.2-179.1-1584.1-248.2-1886l-12.8-58.9H4998.3H1955.6l-30.7,135.6c-51.2,238-151,890.6-191.9,1246.3c-140.8,1271.9-110,2610.2,92.1,3966.5c58.9,381.3,148.4,870.1,166.3,900.8c7.7,12.8,1371.7,20.5,3029.9,20.5h3017.1L8064.1,3225z M7943.8-3658.8l-7.7-314.8l-271.3,7.7c-255.9,7.7-289.2,2.6-606.5-94.7c-742.1-230.3-1300-317.3-1998.6-319.9c-678.1,0-1241.1,84.5-1998.6,296.9c-350.6,99.8-404.3,107.5-680.7,104.9h-302v258.5c0,143.3-7.7,284-15.4,317.3l-15.4,56.3h2950.6h2953.2L7943.8-3658.8z"/><path d="M2539,701.8c-166.3-89.6-227.8-319.9-127.9-483.7c56.3-92.1,130.5-138.2,325-194.5c197-58.9,238-87,238-166.3c0-38.4-10.2-81.9-20.5-97.3c-28.1-46.1-125.4-87-197.1-87c-74.2,0-217.5,125.4-217.5,189.4c0,30.7-25.6,41-102.4,41c-92.1,0-102.4-5.1-102.4-64c0-35.8,23-112.6,53.7-168.9c94.7-186.8,373.6-255.9,606.5-151c191.9,87,266.2,371.1,143.3,555.3c-43.5,69.1-184.2,143.3-342.9,186.8c-222.6,58.8-294.3,156.1-174,240.5c117.7,81.9,273.8,38.4,314.8-87c12.8-40.9,38.4-51.2,117.7-51.2c92.1,0,99.8,5.1,99.8,71.7c0,102.4-92.1,232.9-191.9,276.4C2838.4,763.2,2646.5,758.1,2539,701.8z"/><path d="M4752.6,701.8c-202.2-97.2-304.5-299.4-304.5-596.3c2.6-391.5,212.4-637.2,547.6-637.2c115.2,0,284,56.3,386.4,128c74.2,53.7,74.2,56.3,74.2,309.6v253.3H5226h-230.3V56.9V-45.4h115.2c115.2,0,115.2,0,115.2-87c0-227.7-368.5-253.3-496.4-35.8c-28.2,46.1-53.7,148.4-58.9,248.2c-15.3,230.3,58.9,381.3,212.4,435c133.1,46.1,250.8,7.7,307.1-104.9c28.2-53.7,51.2-71.7,89.6-61.4c25.6,10.2,71.7,23,99.8,30.7c28.1,7.7,51.2,28.1,51.2,46.1c0,51.2-107.5,197.1-186.8,255.9C5144.1,755.5,4890.8,765.8,4752.6,701.8z"/><path d="M3388.6,230.9c7.7-539.9,23-603.9,166.3-701.2c102.4-69.1,424.8-69.1,529.7,2.6c128,87,151,181.7,163.8,711.4l10.2,478.6H4141h-117.7V261.7v-463.2l-66.5-66.5c-53.7-53.7-81.9-61.4-158.7-51.2C3619-288.5,3590.8-199,3588.2,346.1v376.2h-104.9h-104.9L3388.6,230.9z"/><path d="M5955.4,691.6c-30.7-87-396.7-1179.7-396.7-1187.4c0-5.1,48.6-10.2,110-10.2h110l46.1,140.8l43.5,143.3l220.1-7.7l220.1-7.7l43.5-128c40.9-127.9,43.5-127.9,161.2-135.6l117.7-7.7L6477.4-65.9c-87,243.1-181.7,516.9-212.4,609l-58.8,166.3l-117.7,7.7C6006.6,722.3,5963,714.6,5955.4,691.6z M6160.1,210.5c35.8-102.4,64-197,64-209.8c0-10.2-64-20.5-140.8-20.5c-76.8,0-140.7,7.7-140.7,17.9c0,38.4,133.1,419.7,143.3,409.4C6091,402.4,6124.3,312.8,6160.1,210.5z"/><path d="M6761.5,108.1v-614.2h102.4h102.4v255.9V5.8h66.5c110,0,151-40.9,294.3-281.5l135.6-230.3h122.8c66.5,0,122.8,5.1,122.8,12.8c0,33.3-215,391.5-271.2,450.4c-71.7,74.2-76.8,99.8-23,99.8c20.5,0,74.2,33.3,117.7,71.6c69.1,61.4,84.5,94.7,94.7,215c12.8,176.6-40.9,291.7-161.2,342.9c-58.8,23-186.8,35.8-396.7,35.8h-307.1V108.1z M7370.5,486.8c17.9-17.9,30.7-71.7,30.7-122.8c0-133.1-35.8-153.5-248.2-153.5h-186.8V364v153.5H7153C7263,517.6,7352.6,504.8,7370.5,486.8z"/></g></g>
</svg>