<?xml version="1.0" encoding="utf-8"?>
<!-- Svg Vector Icons : http://www.onlinewebfonts.com/icon -->
<!DOCTYPE svg PUBLIC "-//W3C//DTD SVG 1.1//EN" "http://www.w3.org/Graphics/SVG/1.1/DTD/svg11.dtd">
<svg version="1.1" xmlns="http://www.w3.org/2000/svg" xmlns:xlink="http://www.w3.org/1999/xlink" x="0px" y="0px" viewBox="0 0 1000 1000" enable-background="new 0 0 1000 1000" xml:space="preserve">
<metadata> Svg Vector Icons : http://www.onlinewebfonts.com/icon </metadata>
<g><g transform="translate(0.000000,511.000000) scale(0.100000,-0.100000)"><path d="M2149.7,4947.2c-87.5-44.8-139-91.9-188.4-172.7l-67.3-107.6v-607.7c0-650.4,4.5-677.3,125.6-809.6c40.4-44.9,35.9-58.3-282.6-807.3l-322.9-762.5l-2.2-2758.3c0-3040.9-6.7-2879.5,141.3-3159.8c103.2-201.8,352.1-441.8,515.8-504.6l130.1-47.1l2852.5,4.5l2852.5,6.7l100.9,49.3c199.6,98.7,417.1,365.5,520.3,641.4l51.6,139l6.7,2809.9l4.5,2809.9l-322.9,762.5l-322.9,762.5l74,109.9c96.4,143.5,107.6,226.5,96.4,854.4l-6.7,506.8l-67.3,107.6c-49.3,80.7-100.9,127.8-188.4,172.7l-118.9,62.8H5000H2268.6L2149.7,4947.2z M7623.8,4056.9v-482.2H5000H2376.2v482.2v482.1H5000h2623.8V4056.9z M7789.8,2330.1l327.4-773.7l-4.5-2709l-6.7-2706.8l-65-139.1c-38.1-83-105.4-179.4-161.4-231l-98.7-89.7H5033.7c-2356.9,0-2758.4,4.5-2812.2,31.4c-89.7,47.1-201.8,181.6-269.1,327.4l-58.3,123.3l-6.7,2697.8l-4.5,2695.6l327.4,773.7l329.6,773.7H5000h2460.1L7789.8,2330.1z"/><path d="M2416.6,1756c-58.3-33.6-51.6-143.5,9-186.1c44.8-31.4,325.2-35.9,2574.5-35.9c2249.3,0,2529.6,4.5,2574.5,35.9c62.8,44.9,67.3,154.7,6.7,188.4C7520.7,1789.7,2470.4,1787.4,2416.6,1756z"/><path d="M4838.6,1110.2l-74-65l-6.7-574.1c-4.5-316.2-13.5-574.1-22.4-574.1c-9,0-219.8,78.5-468.7,172.7l-455.2,174.9v242.2c0,284.8-31.4,374.5-145.8,428.3c-91.9,44.9-109.9,44.9-201.8,0c-150.3-69.5-145.8-24.7-145.8-1643.8c0-1601.2-2.2-1581,132.3-1648.3c35.9-20.2,327.4-136.8,645.9-257.9c318.4-121.1,596.5-228.7,618.9-237.7c33.6-13.4,38.1-53.8,38.1-385.7c0-419.4,20.2-495.6,145.8-553.9c91.9-44.9,109.9-44.9,201.8,0c125.6,58.3,145.8,134.6,145.8,553.9v370l87.5,35.9c49.3,17.9,329.7,125.6,623.4,239.9c293.8,112.1,562.9,219.8,596.5,237.7c127.8,65,127.8,51.6,127.8,1646c0,1619.1,4.5,1574.3-145.8,1643.8c-91.9,44.9-109.9,44.9-201.8,0c-114.4-53.8-145.8-143.5-145.8-428.3V244.6l-453-174.9c-251.2-94.2-462-172.7-470.9-172.7c-11.2,0-17.9,237.7-17.9,527c0,567.4-11.2,643.6-114.4,715.4C5047.1,1197.6,4923.8,1186.4,4838.6,1110.2z M4300.3-455.1l453-174.9v-296v-293.8l-318.4,123.3c-177.2,67.3-388,148-470.9,179.4L3811.5-861v289.3c0,159.2,6.7,289.3,17.9,289.3C3838.4-282.5,4049.2-360.9,4300.3-455.1z M6188.6-571.7V-861l-150.3-56.1c-85.2-31.4-296-112.1-470.9-179.4l-320.7-123.3v293.8v296l444,172.7c242.2,94.2,455.2,172.7,470.9,172.7C6181.9-282.5,6188.6-354.2,6188.6-571.7z M4282.4-1603.3l459.7-177.1l6.7-296c4.5-273.6,2.2-293.8-33.6-282.6c-22.4,6.7-231,87.4-466.4,179.4l-426.1,163.7l-6.7,296c-2.2,161.4-2.2,293.8,0,293.8C3820.4-1426.2,4029-1504.6,4282.4-1603.3z M6184.1-1719.9l-6.7-296l-426.1-163.7c-233.2-92-444-172.7-466.4-179.4c-35.9-11.2-38.1,9-33.6,282.6l6.7,296l448.5,174.9c246.7,96.4,457.5,177.2,466.4,177.2C6181.9-1426.2,6186.4-1558.5,6184.1-1719.9z"/></g></g>
</svg>