<svg width="16" height="16" viewBox="0 0 16 16" fill="none" xmlns="http://www.w3.org/2000/svg">
<path d="M8 16C3.5824 16 0 12.4176 0 8C0 3.5824 3.5824 0 8 0C12.4176 0 16 3.5824 16 8C16 12.4176 12.4176 16 8 16Z" fill="#5855E4"/>
<path fill-rule="evenodd" clip-rule="evenodd" d="M5.24295 4.02874C5.24295 3.34714 4.69095 2.79514 4.01095 2.79514C3.32775 2.79514 2.77575 3.34874 2.77735 4.02874C2.77735 4.71034 3.32935 5.26234 4.01095 5.26234C4.69095 5.26234 5.24295 4.71034 5.24295 4.02874ZM5.07296 6.1968H2.94656V13.04H5.07296V6.1968Z" fill="white"/>
<path d="M6.4082 6.19677H8.4482V7.13117H8.477C8.7602 6.59357 9.453 6.02557 10.4898 6.02557C12.6434 6.02557 13.0418 7.44317 13.0418 9.28477V13.04H10.9154V9.71357C10.9154 8.91837 10.901 7.89917 9.8098 7.89917C8.7026 7.89917 8.533 8.76317 8.533 9.65597V13.0416H6.4082V6.19677Z" fill="white"/>
</svg>
